<?xml version="1.0" encoding="utf-8" standalone="no"?>
<!DOCTYPE svg PUBLIC "-//W3C//DTD SVG 1.1//EN"
  "http://www.w3.org/Graphics/SVG/1.1/DTD/svg11.dtd">
<svg xmlns:xlink="http://www.w3.org/1999/xlink" width="864pt" height="720pt" viewBox="0 0 864 720" xmlns="http://www.w3.org/2000/svg" version="1.1">
 <metadata>
  <rdf:RDF xmlns:dc="http://purl.org/dc/elements/1.1/" xmlns:cc="http://creativecommons.org/ns#" xmlns:rdf="http://www.w3.org/1999/02/22-rdf-syntax-ns#">
   <cc:Work>
    <dc:type rdf:resource="http://purl.org/dc/dcmitype/StillImage"/>
    <dc:date>2025-08-20T04:39:02.741169</dc:date>
    <dc:format>image/svg+xml</dc:format>
    <dc:creator>
     <cc:Agent>
      <dc:title>Matplotlib v3.10.5, https://matplotlib.org/</dc:title>
     </cc:Agent>
    </dc:creator>
   </cc:Work>
  </rdf:RDF>
 </metadata>
 <defs>
  <style type="text/css">*{stroke-linejoin: round; stroke-linecap: butt}</style>
 </defs>
 <g id="figure_1">
  <g id="patch_1">
   <path d="M 0 720 
L 864 720 
L 864 0 
L 0 0 
z
" style="fill: #ffffff"/>
  </g>
  <g id="axes_1">
   <g id="patch_2">
    <path d="M 116.14 675.16 
L 747.86 675.16 
L 747.86 43.44 
L 116.14 43.44 
z
" style="fill: #ffffff"/>
   </g>
   <g id="patch_3">
    <path d="M 190.169688 546.841875 
C 195.405128 546.841875 200.426844 544.761812 204.128859 541.059797 
C 207.830875 537.357781 209.910938 532.336066 209.910938 527.100625 
C 209.910938 521.865184 207.830875 516.843469 204.128859 513.141453 
C 200.426844 509.439438 195.405128 507.359375 190.169688 507.359375 
C 184.934247 507.359375 179.912531 509.439438 176.210516 513.141453 
C 172.5085 516.843469 170.428438 521.865184 170.428438 527.100625 
C 170.428438 532.336066 172.5085 537.357781 176.210516 541.059797 
C 179.912531 544.761812 184.934247 546.841875 190.169688 546.841875 
z
" clip-path="url(#p416f26b46b)" style="opacity: 0.5; stroke: #000000; stroke-linejoin: miter"/>
   </g>
   <g id="patch_4">
    <path d="M 190.169688 507.359375 
C 195.405128 507.359375 200.426844 505.279312 204.128859 501.577297 
C 207.830875 497.875281 209.910938 492.853566 209.910938 487.618125 
C 209.910938 482.382684 207.830875 477.360969 204.128859 473.658953 
C 200.426844 469.956938 195.405128 467.876875 190.169688 467.876875 
C 184.934247 467.876875 179.912531 469.956938 176.210516 473.658953 
C 172.5085 477.360969 170.428438 482.382684 170.428438 487.618125 
C 170.428438 492.853566 172.5085 497.875281 176.210516 501.577297 
C 179.912531 505.279312 184.934247 507.359375 190.169688 507.359375 
z
" clip-path="url(#p416f26b46b)" style="opacity: 0.5; stroke: #000000; stroke-linejoin: miter"/>
   </g>
   <g id="patch_5">
    <path d="M 190.169688 586.324375 
C 195.405128 586.324375 200.426844 584.244312 204.128859 580.542297 
C 207.830875 576.840281 209.910938 571.818566 209.910938 566.583125 
C 209.910938 561.347684 207.830875 556.325969 204.128859 552.623953 
C 200.426844 548.921938 195.405128 546.841875 190.169688 546.841875 
C 184.934247 546.841875 179.912531 548.921938 176.210516 552.623953 
C 172.5085 556.325969 170.428438 561.347684 170.428438 566.583125 
C 170.428438 571.818566 172.5085 576.840281 176.210516 580.542297 
C 179.912531 584.244312 184.934247 586.324375 190.169688 586.324375 
z
" clip-path="url(#p416f26b46b)" style="opacity: 0.5; stroke: #000000; stroke-linejoin: miter"/>
   </g>
   <g id="patch_6">
    <path d="M 259.264063 546.841875 
C 264.499503 546.841875 269.521219 544.761812 273.223234 541.059797 
C 276.92525 537.357781 279.005313 532.336066 279.005313 527.100625 
C 279.005313 521.865184 276.92525 516.843469 273.223234 513.141453 
C 269.521219 509.439438 264.499503 507.359375 259.264063 507.359375 
C 254.028622 507.359375 249.006906 509.439438 245.304891 513.141453 
C 241.602875 516.843469 239.522813 521.865184 239.522813 527.100625 
C 239.522813 532.336066 241.602875 537.357781 245.304891 541.059797 
C 249.006906 544.761812 254.028622 546.841875 259.264063 546.841875 
z
" clip-path="url(#p416f26b46b)" style="opacity: 0.5; stroke: #000000; stroke-linejoin: miter"/>
   </g>
   <g id="patch_7">
    <path d="M 259.264063 507.359375 
C 264.499503 507.359375 269.521219 505.279312 273.223234 501.577297 
C 276.92525 497.875281 279.005313 492.853566 279.005313 487.618125 
C 279.005313 482.382684 276.92525 477.360969 273.223234 473.658953 
C 269.521219 469.956938 264.499503 467.876875 259.264063 467.876875 
C 254.028622 467.876875 249.006906 469.956938 245.304891 473.658953 
C 241.602875 477.360969 239.522813 482.382684 239.522813 487.618125 
C 239.522813 492.853566 241.602875 497.875281 245.304891 501.577297 
C 249.006906 505.279312 254.028622 507.359375 259.264063 507.359375 
z
" clip-path="url(#p416f26b46b)" style="opacity: 0.5; stroke: #000000; stroke-linejoin: miter"/>
   </g>
   <g id="patch_8">
    <path d="M 259.264063 586.324375 
C 264.499503 586.324375 269.521219 584.244312 273.223234 580.542297 
C 276.92525 576.840281 279.005313 571.818566 279.005313 566.583125 
C 279.005313 561.347684 276.92525 556.325969 273.223234 552.623953 
C 269.521219 548.921938 264.499503 546.841875 259.264063 546.841875 
C 254.028622 546.841875 249.006906 548.921938 245.304891 552.623953 
C 241.602875 556.325969 239.522813 561.347684 239.522813 566.583125 
C 239.522813 571.818566 241.602875 576.840281 245.304891 580.542297 
C 249.006906 584.244312 254.028622 586.324375 259.264063 586.324375 
z
" clip-path="url(#p416f26b46b)" style="opacity: 0.5; stroke: #000000; stroke-linejoin: miter"/>
   </g>
   <g id="patch_9">
    <path d="M 328.358438 546.841875 
C 333.593878 546.841875 338.615594 544.761812 342.317609 541.059797 
C 346.019625 537.357781 348.099688 532.336066 348.099688 527.100625 
C 348.099688 521.865184 346.019625 516.843469 342.317609 513.141453 
C 338.615594 509.439438 333.593878 507.359375 328.358438 507.359375 
C 323.122997 507.359375 318.101281 509.439438 314.399266 513.141453 
C 310.69725 516.843469 308.617188 521.865184 308.617188 527.100625 
C 308.617188 532.336066 310.69725 537.357781 314.399266 541.059797 
C 318.101281 544.761812 323.122997 546.841875 328.358438 546.841875 
z
" clip-path="url(#p416f26b46b)" style="opacity: 0.5; stroke: #000000; stroke-linejoin: miter"/>
   </g>
   <g id="patch_10">
    <path d="M 328.358438 507.359375 
C 333.593878 507.359375 338.615594 505.279312 342.317609 501.577297 
C 346.019625 497.875281 348.099688 492.853566 348.099688 487.618125 
C 348.099688 482.382684 346.019625 477.360969 342.317609 473.658953 
C 338.615594 469.956938 333.593878 467.876875 328.358438 467.876875 
C 323.122997 467.876875 318.101281 469.956938 314.399266 473.658953 
C 310.69725 477.360969 308.617188 482.382684 308.617188 487.618125 
C 308.617188 492.853566 310.69725 497.875281 314.399266 501.577297 
C 318.101281 505.279312 323.122997 507.359375 328.358438 507.359375 
z
" clip-path="url(#p416f26b46b)" style="opacity: 0.5; stroke: #000000; stroke-linejoin: miter"/>
   </g>
   <g id="patch_11">
    <path d="M 328.358438 586.324375 
C 333.593878 586.324375 338.615594 584.244312 342.317609 580.542297 
C 346.019625 576.840281 348.099688 571.818566 348.099688 566.583125 
C 348.099688 561.347684 346.019625 556.325969 342.317609 552.623953 
C 338.615594 548.921938 333.593878 546.841875 328.358438 546.841875 
C 323.122997 546.841875 318.101281 548.921938 314.399266 552.623953 
C 310.69725 556.325969 308.617188 561.347684 308.617188 566.583125 
C 308.617188 571.818566 310.69725 576.840281 314.399266 580.542297 
C 318.101281 584.244312 323.122997 586.324375 328.358438 586.324375 
z
" clip-path="url(#p416f26b46b)" style="opacity: 0.5; stroke: #000000; stroke-linejoin: miter"/>
   </g>
   <g id="patch_12">
    <path d="M 466.547188 546.841875 
C 471.782628 546.841875 476.804344 544.761812 480.506359 541.059797 
C 484.208375 537.357781 486.288438 532.336066 486.288438 527.100625 
C 486.288438 521.865184 484.208375 516.843469 480.506359 513.141453 
C 476.804344 509.439438 471.782628 507.359375 466.547188 507.359375 
C 461.311747 507.359375 456.290031 509.439438 452.588016 513.141453 
C 448.886 516.843469 446.805938 521.865184 446.805938 527.100625 
C 446.805938 532.336066 448.886 537.357781 452.588016 541.059797 
C 456.290031 544.761812 461.311747 546.841875 466.547188 546.841875 
z
" clip-path="url(#p416f26b46b)" style="opacity: 0.5; stroke: #000000; stroke-linejoin: miter"/>
   </g>
   <g id="patch_13">
    <path d="M 466.547188 507.359375 
C 471.782628 507.359375 476.804344 505.279312 480.506359 501.577297 
C 484.208375 497.875281 486.288438 492.853566 486.288438 487.618125 
C 486.288438 482.382684 484.208375 477.360969 480.506359 473.658953 
C 476.804344 469.956938 471.782628 467.876875 466.547188 467.876875 
C 461.311747 467.876875 456.290031 469.956938 452.588016 473.658953 
C 448.886 477.360969 446.805938 482.382684 446.805938 487.618125 
C 446.805938 492.853566 448.886 497.875281 452.588016 501.577297 
C 456.290031 505.279312 461.311747 507.359375 466.547188 507.359375 
z
" clip-path="url(#p416f26b46b)" style="opacity: 0.5; stroke: #000000; stroke-linejoin: miter"/>
   </g>
   <g id="patch_14">
    <path d="M 466.547188 586.324375 
C 471.782628 586.324375 476.804344 584.244312 480.506359 580.542297 
C 484.208375 576.840281 486.288438 571.818566 486.288438 566.583125 
C 486.288438 561.347684 484.208375 556.325969 480.506359 552.623953 
C 476.804344 548.921938 471.782628 546.841875 466.547188 546.841875 
C 461.311747 546.841875 456.290031 548.921938 452.588016 552.623953 
C 448.886 556.325969 446.805938 561.347684 446.805938 566.583125 
C 446.805938 571.818566 448.886 576.840281 452.588016 580.542297 
C 456.290031 584.244312 461.311747 586.324375 466.547188 586.324375 
z
" clip-path="url(#p416f26b46b)" style="opacity: 0.5; stroke: #000000; stroke-linejoin: miter"/>
   </g>
   <g id="patch_15">
    <path d="M 535.641563 546.841875 
C 540.877003 546.841875 545.898719 544.761812 549.600734 541.059797 
C 553.30275 537.357781 555.382813 532.336066 555.382813 527.100625 
C 555.382813 521.865184 553.30275 516.843469 549.600734 513.141453 
C 545.898719 509.439438 540.877003 507.359375 535.641563 507.359375 
C 530.406122 507.359375 525.384406 509.439438 521.682391 513.141453 
C 517.980375 516.843469 515.900313 521.865184 515.900313 527.100625 
C 515.900313 532.336066 517.980375 537.357781 521.682391 541.059797 
C 525.384406 544.761812 530.406122 546.841875 535.641563 546.841875 
z
" clip-path="url(#p416f26b46b)" style="opacity: 0.5; stroke: #000000; stroke-linejoin: miter"/>
   </g>
   <g id="patch_16">
    <path d="M 535.641563 507.359375 
C 540.877003 507.359375 545.898719 505.279312 549.600734 501.577297 
C 553.30275 497.875281 555.382813 492.853566 555.382813 487.618125 
C 555.382813 482.382684 553.30275 477.360969 549.600734 473.658953 
C 545.898719 469.956938 540.877003 467.876875 535.641563 467.876875 
C 530.406122 467.876875 525.384406 469.956938 521.682391 473.658953 
C 517.980375 477.360969 515.900313 482.382684 515.900313 487.618125 
C 515.900313 492.853566 517.980375 497.875281 521.682391 501.577297 
C 525.384406 505.279312 530.406122 507.359375 535.641563 507.359375 
z
" clip-path="url(#p416f26b46b)" style="opacity: 0.5; stroke: #000000; stroke-linejoin: miter"/>
   </g>
   <g id="patch_17">
    <path d="M 535.641563 586.324375 
C 540.877003 586.324375 545.898719 584.244312 549.600734 580.542297 
C 553.30275 576.840281 555.382813 571.818566 555.382813 566.583125 
C 555.382813 561.347684 553.30275 556.325969 549.600734 552.623953 
C 545.898719 548.921938 540.877003 546.841875 535.641563 546.841875 
C 530.406122 546.841875 525.384406 548.921938 521.682391 552.623953 
C 517.980375 556.325969 515.900313 561.347684 515.900313 566.583125 
C 515.900313 571.818566 517.980375 576.840281 521.682391 580.542297 
C 525.384406 584.244312 530.406122 586.324375 535.641563 586.324375 
z
" clip-path="url(#p416f26b46b)" style="opacity: 0.5; stroke: #000000; stroke-linejoin: miter"/>
   </g>
   <g id="patch_18">
    <path d="M 604.735938 546.841875 
C 609.971378 546.841875 614.993094 544.761812 618.695109 541.059797 
C 622.397125 537.357781 624.477188 532.336066 624.477188 527.100625 
C 624.477188 521.865184 622.397125 516.843469 618.695109 513.141453 
C 614.993094 509.439438 609.971378 507.359375 604.735938 507.359375 
C 599.500497 507.359375 594.478781 509.439438 590.776766 513.141453 
C 587.07475 516.843469 584.994688 521.865184 584.994688 527.100625 
C 584.994688 532.336066 587.07475 537.357781 590.776766 541.059797 
C 594.478781 544.761812 599.500497 546.841875 604.735938 546.841875 
z
" clip-path="url(#p416f26b46b)" style="opacity: 0.5; stroke: #000000; stroke-linejoin: miter"/>
   </g>
   <g id="patch_19">
    <path d="M 604.735938 507.359375 
C 609.971378 507.359375 614.993094 505.279312 618.695109 501.577297 
C 622.397125 497.875281 624.477188 492.853566 624.477188 487.618125 
C 624.477188 482.382684 622.397125 477.360969 618.695109 473.658953 
C 614.993094 469.956938 609.971378 467.876875 604.735938 467.876875 
C 599.500497 467.876875 594.478781 469.956938 590.776766 473.658953 
C 587.07475 477.360969 584.994688 482.382684 584.994688 487.618125 
C 584.994688 492.853566 587.07475 497.875281 590.776766 501.577297 
C 594.478781 505.279312 599.500497 507.359375 604.735938 507.359375 
z
" clip-path="url(#p416f26b46b)" style="opacity: 0.5; stroke: #000000; stroke-linejoin: miter"/>
   </g>
   <g id="patch_20">
    <path d="M 604.735938 586.324375 
C 609.971378 586.324375 614.993094 584.244312 618.695109 580.542297 
C 622.397125 576.840281 624.477188 571.818566 624.477188 566.583125 
C 624.477188 561.347684 622.397125 556.325969 618.695109 552.623953 
C 614.993094 548.921938 609.971378 546.841875 604.735938 546.841875 
C 599.500497 546.841875 594.478781 548.921938 590.776766 552.623953 
C 587.07475 556.325969 584.994688 561.347684 584.994688 566.583125 
C 584.994688 571.818566 587.07475 576.840281 590.776766 580.542297 
C 594.478781 584.244312 599.500497 586.324375 604.735938 586.324375 
z
" clip-path="url(#p416f26b46b)" style="opacity: 0.5; stroke: #000000; stroke-linejoin: miter"/>
   </g>
   <g id="patch_21">
    <path d="M 190.169688 408.653125 
C 195.405128 408.653125 200.426844 406.573062 204.128859 402.871047 
C 207.830875 399.169031 209.910938 394.147316 209.910938 388.911875 
C 209.910938 383.676434 207.830875 378.654719 204.128859 374.952703 
C 200.426844 371.250688 195.405128 369.170625 190.169688 369.170625 
C 184.934247 369.170625 179.912531 371.250688 176.210516 374.952703 
C 172.5085 378.654719 170.428438 383.676434 170.428438 388.911875 
C 170.428438 394.147316 172.5085 399.169031 176.210516 402.871047 
C 179.912531 406.573062 184.934247 408.653125 190.169688 408.653125 
z
" clip-path="url(#p416f26b46b)" style="opacity: 0.5; stroke: #000000; stroke-linejoin: miter"/>
   </g>
   <g id="patch_22">
    <path d="M 190.169688 369.170625 
C 195.405128 369.170625 200.426844 367.090562 204.128859 363.388547 
C 207.830875 359.686531 209.910938 354.664816 209.910938 349.429375 
C 209.910938 344.193934 207.830875 339.172219 204.128859 335.470203 
C 200.426844 331.768188 195.405128 329.688125 190.169688 329.688125 
C 184.934247 329.688125 179.912531 331.768188 176.210516 335.470203 
C 172.5085 339.172219 170.428438 344.193934 170.428438 349.429375 
C 170.428438 354.664816 172.5085 359.686531 176.210516 363.388547 
C 179.912531 367.090562 184.934247 369.170625 190.169688 369.170625 
z
" clip-path="url(#p416f26b46b)" style="opacity: 0.5; stroke: #000000; stroke-linejoin: miter"/>
   </g>
   <g id="patch_23">
    <path d="M 190.169688 448.135625 
C 195.405128 448.135625 200.426844 446.055562 204.128859 442.353547 
C 207.830875 438.651531 209.910938 433.629816 209.910938 428.394375 
C 209.910938 423.158934 207.830875 418.137219 204.128859 414.435203 
C 200.426844 410.733188 195.405128 408.653125 190.169688 408.653125 
C 184.934247 408.653125 179.912531 410.733188 176.210516 414.435203 
C 172.5085 418.137219 170.428438 423.158934 170.428438 428.394375 
C 170.428438 433.629816 172.5085 438.651531 176.210516 442.353547 
C 179.912531 446.055562 184.934247 448.135625 190.169688 448.135625 
z
" clip-path="url(#p416f26b46b)" style="opacity: 0.5; stroke: #000000; stroke-linejoin: miter"/>
   </g>
   <g id="patch_24">
    <path d="M 259.264063 408.653125 
C 264.499503 408.653125 269.521219 406.573062 273.223234 402.871047 
C 276.92525 399.169031 279.005313 394.147316 279.005313 388.911875 
C 279.005313 383.676434 276.92525 378.654719 273.223234 374.952703 
C 269.521219 371.250688 264.499503 369.170625 259.264063 369.170625 
C 254.028622 369.170625 249.006906 371.250688 245.304891 374.952703 
C 241.602875 378.654719 239.522813 383.676434 239.522813 388.911875 
C 239.522813 394.147316 241.602875 399.169031 245.304891 402.871047 
C 249.006906 406.573062 254.028622 408.653125 259.264063 408.653125 
z
" clip-path="url(#p416f26b46b)" style="opacity: 0.5; stroke: #000000; stroke-linejoin: miter"/>
   </g>
   <g id="patch_25">
    <path d="M 259.264063 369.170625 
C 264.499503 369.170625 269.521219 367.090562 273.223234 363.388547 
C 276.92525 359.686531 279.005313 354.664816 279.005313 349.429375 
C 279.005313 344.193934 276.92525 339.172219 273.223234 335.470203 
C 269.521219 331.768188 264.499503 329.688125 259.264063 329.688125 
C 254.028622 329.688125 249.006906 331.768188 245.304891 335.470203 
C 241.602875 339.172219 239.522813 344.193934 239.522813 349.429375 
C 239.522813 354.664816 241.602875 359.686531 245.304891 363.388547 
C 249.006906 367.090562 254.028622 369.170625 259.264063 369.170625 
z
" clip-path="url(#p416f26b46b)" style="opacity: 0.5; stroke: #000000; stroke-linejoin: miter"/>
   </g>
   <g id="patch_26">
    <path d="M 259.264063 448.135625 
C 264.499503 448.135625 269.521219 446.055562 273.223234 442.353547 
C 276.92525 438.651531 279.005313 433.629816 279.005313 428.394375 
C 279.005313 423.158934 276.92525 418.137219 273.223234 414.435203 
C 269.521219 410.733188 264.499503 408.653125 259.264063 408.653125 
C 254.028622 408.653125 249.006906 410.733188 245.304891 414.435203 
C 241.602875 418.137219 239.522813 423.158934 239.522813 428.394375 
C 239.522813 433.629816 241.602875 438.651531 245.304891 442.353547 
C 249.006906 446.055562 254.028622 448.135625 259.264063 448.135625 
z
" clip-path="url(#p416f26b46b)" style="opacity: 0.5; stroke: #000000; stroke-linejoin: miter"/>
   </g>
   <g id="patch_27">
    <path d="M 328.358438 408.653125 
C 333.593878 408.653125 338.615594 406.573062 342.317609 402.871047 
C 346.019625 399.169031 348.099688 394.147316 348.099688 388.911875 
C 348.099688 383.676434 346.019625 378.654719 342.317609 374.952703 
C 338.615594 371.250688 333.593878 369.170625 328.358438 369.170625 
C 323.122997 369.170625 318.101281 371.250688 314.399266 374.952703 
C 310.69725 378.654719 308.617188 383.676434 308.617188 388.911875 
C 308.617188 394.147316 310.69725 399.169031 314.399266 402.871047 
C 318.101281 406.573062 323.122997 408.653125 328.358438 408.653125 
z
" clip-path="url(#p416f26b46b)" style="opacity: 0.5; stroke: #000000; stroke-linejoin: miter"/>
   </g>
   <g id="patch_28">
    <path d="M 328.358438 369.170625 
C 333.593878 369.170625 338.615594 367.090562 342.317609 363.388547 
C 346.019625 359.686531 348.099688 354.664816 348.099688 349.429375 
C 348.099688 344.193934 346.019625 339.172219 342.317609 335.470203 
C 338.615594 331.768188 333.593878 329.688125 328.358438 329.688125 
C 323.122997 329.688125 318.101281 331.768188 314.399266 335.470203 
C 310.69725 339.172219 308.617188 344.193934 308.617188 349.429375 
C 308.617188 354.664816 310.69725 359.686531 314.399266 363.388547 
C 318.101281 367.090562 323.122997 369.170625 328.358438 369.170625 
z
" clip-path="url(#p416f26b46b)" style="opacity: 0.5; stroke: #000000; stroke-linejoin: miter"/>
   </g>
   <g id="patch_29">
    <path d="M 328.358438 448.135625 
C 333.593878 448.135625 338.615594 446.055562 342.317609 442.353547 
C 346.019625 438.651531 348.099688 433.629816 348.099688 428.394375 
C 348.099688 423.158934 346.019625 418.137219 342.317609 414.435203 
C 338.615594 410.733188 333.593878 408.653125 328.358438 408.653125 
C 323.122997 408.653125 318.101281 410.733188 314.399266 414.435203 
C 310.69725 418.137219 308.617188 423.158934 308.617188 428.394375 
C 308.617188 433.629816 310.69725 438.651531 314.399266 442.353547 
C 318.101281 446.055562 323.122997 448.135625 328.358438 448.135625 
z
" clip-path="url(#p416f26b46b)" style="opacity: 0.5; stroke: #000000; stroke-linejoin: miter"/>
   </g>
   <g id="patch_30">
    <path d="M 466.547188 408.653125 
C 471.782628 408.653125 476.804344 406.573062 480.506359 402.871047 
C 484.208375 399.169031 486.288438 394.147316 486.288438 388.911875 
C 486.288438 383.676434 484.208375 378.654719 480.506359 374.952703 
C 476.804344 371.250688 471.782628 369.170625 466.547188 369.170625 
C 461.311747 369.170625 456.290031 371.250688 452.588016 374.952703 
C 448.886 378.654719 446.805938 383.676434 446.805938 388.911875 
C 446.805938 394.147316 448.886 399.169031 452.588016 402.871047 
C 456.290031 406.573062 461.311747 408.653125 466.547188 408.653125 
z
" clip-path="url(#p416f26b46b)" style="opacity: 0.5; stroke: #000000; stroke-linejoin: miter"/>
   </g>
   <g id="patch_31">
    <path d="M 466.547188 369.170625 
C 471.782628 369.170625 476.804344 367.090562 480.506359 363.388547 
C 484.208375 359.686531 486.288438 354.664816 486.288438 349.429375 
C 486.288438 344.193934 484.208375 339.172219 480.506359 335.470203 
C 476.804344 331.768188 471.782628 329.688125 466.547188 329.688125 
C 461.311747 329.688125 456.290031 331.768188 452.588016 335.470203 
C 448.886 339.172219 446.805938 344.193934 446.805938 349.429375 
C 446.805938 354.664816 448.886 359.686531 452.588016 363.388547 
C 456.290031 367.090562 461.311747 369.170625 466.547188 369.170625 
z
" clip-path="url(#p416f26b46b)" style="opacity: 0.5; stroke: #000000; stroke-linejoin: miter"/>
   </g>
   <g id="patch_32">
    <path d="M 466.547188 448.135625 
C 471.782628 448.135625 476.804344 446.055562 480.506359 442.353547 
C 484.208375 438.651531 486.288438 433.629816 486.288438 428.394375 
C 486.288438 423.158934 484.208375 418.137219 480.506359 414.435203 
C 476.804344 410.733188 471.782628 408.653125 466.547188 408.653125 
C 461.311747 408.653125 456.290031 410.733188 452.588016 414.435203 
C 448.886 418.137219 446.805938 423.158934 446.805938 428.394375 
C 446.805938 433.629816 448.886 438.651531 452.588016 442.353547 
C 456.290031 446.055562 461.311747 448.135625 466.547188 448.135625 
z
" clip-path="url(#p416f26b46b)" style="opacity: 0.5; stroke: #000000; stroke-linejoin: miter"/>
   </g>
   <g id="patch_33">
    <path d="M 535.641563 408.653125 
C 540.877003 408.653125 545.898719 406.573062 549.600734 402.871047 
C 553.30275 399.169031 555.382813 394.147316 555.382813 388.911875 
C 555.382813 383.676434 553.30275 378.654719 549.600734 374.952703 
C 545.898719 371.250688 540.877003 369.170625 535.641563 369.170625 
C 530.406122 369.170625 525.384406 371.250688 521.682391 374.952703 
C 517.980375 378.654719 515.900313 383.676434 515.900313 388.911875 
C 515.900313 394.147316 517.980375 399.169031 521.682391 402.871047 
C 525.384406 406.573062 530.406122 408.653125 535.641563 408.653125 
z
" clip-path="url(#p416f26b46b)" style="opacity: 0.5; stroke: #000000; stroke-linejoin: miter"/>
   </g>
   <g id="patch_34">
    <path d="M 535.641563 369.170625 
C 540.877003 369.170625 545.898719 367.090562 549.600734 363.388547 
C 553.30275 359.686531 555.382813 354.664816 555.382813 349.429375 
C 555.382813 344.193934 553.30275 339.172219 549.600734 335.470203 
C 545.898719 331.768188 540.877003 329.688125 535.641563 329.688125 
C 530.406122 329.688125 525.384406 331.768188 521.682391 335.470203 
C 517.980375 339.172219 515.900313 344.193934 515.900313 349.429375 
C 515.900313 354.664816 517.980375 359.686531 521.682391 363.388547 
C 525.384406 367.090562 530.406122 369.170625 535.641563 369.170625 
z
" clip-path="url(#p416f26b46b)" style="opacity: 0.5; stroke: #000000; stroke-linejoin: miter"/>
   </g>
   <g id="patch_35">
    <path d="M 535.641563 448.135625 
C 540.877003 448.135625 545.898719 446.055562 549.600734 442.353547 
C 553.30275 438.651531 555.382813 433.629816 555.382813 428.394375 
C 555.382813 423.158934 553.30275 418.137219 549.600734 414.435203 
C 545.898719 410.733188 540.877003 408.653125 535.641563 408.653125 
C 530.406122 408.653125 525.384406 410.733188 521.682391 414.435203 
C 517.980375 418.137219 515.900313 423.158934 515.900313 428.394375 
C 515.900313 433.629816 517.980375 438.651531 521.682391 442.353547 
C 525.384406 446.055562 530.406122 448.135625 535.641563 448.135625 
z
" clip-path="url(#p416f26b46b)" style="opacity: 0.5; stroke: #000000; stroke-linejoin: miter"/>
   </g>
   <g id="patch_36">
    <path d="M 604.735938 408.653125 
C 609.971378 408.653125 614.993094 406.573062 618.695109 402.871047 
C 622.397125 399.169031 624.477188 394.147316 624.477188 388.911875 
C 624.477188 383.676434 622.397125 378.654719 618.695109 374.952703 
C 614.993094 371.250688 609.971378 369.170625 604.735938 369.170625 
C 599.500497 369.170625 594.478781 371.250688 590.776766 374.952703 
C 587.07475 378.654719 584.994688 383.676434 584.994688 388.911875 
C 584.994688 394.147316 587.07475 399.169031 590.776766 402.871047 
C 594.478781 406.573062 599.500497 408.653125 604.735938 408.653125 
z
" clip-path="url(#p416f26b46b)" style="opacity: 0.5; stroke: #000000; stroke-linejoin: miter"/>
   </g>
   <g id="patch_37">
    <path d="M 604.735938 369.170625 
C 609.971378 369.170625 614.993094 367.090562 618.695109 363.388547 
C 622.397125 359.686531 624.477188 354.664816 624.477188 349.429375 
C 624.477188 344.193934 622.397125 339.172219 618.695109 335.470203 
C 614.993094 331.768188 609.971378 329.688125 604.735938 329.688125 
C 599.500497 329.688125 594.478781 331.768188 590.776766 335.470203 
C 587.07475 339.172219 584.994688 344.193934 584.994688 349.429375 
C 584.994688 354.664816 587.07475 359.686531 590.776766 363.388547 
C 594.478781 367.090562 599.500497 369.170625 604.735938 369.170625 
z
" clip-path="url(#p416f26b46b)" style="opacity: 0.5; stroke: #000000; stroke-linejoin: miter"/>
   </g>
   <g id="patch_38">
    <path d="M 604.735938 448.135625 
C 609.971378 448.135625 614.993094 446.055562 618.695109 442.353547 
C 622.397125 438.651531 624.477188 433.629816 624.477188 428.394375 
C 624.477188 423.158934 622.397125 418.137219 618.695109 414.435203 
C 614.993094 410.733188 609.971378 408.653125 604.735938 408.653125 
C 599.500497 408.653125 594.478781 410.733188 590.776766 414.435203 
C 587.07475 418.137219 584.994688 423.158934 584.994688 428.394375 
C 584.994688 433.629816 587.07475 438.651531 590.776766 442.353547 
C 594.478781 446.055562 599.500497 448.135625 604.735938 448.135625 
z
" clip-path="url(#p416f26b46b)" style="opacity: 0.5; stroke: #000000; stroke-linejoin: miter"/>
   </g>
   <g id="patch_39">
    <path d="M 135.88125 645.548125 
L 728.11875 645.548125 
L 728.11875 625.806875 
L 135.88125 625.806875 
z
" clip-path="url(#p416f26b46b)" style="fill: #808080; opacity: 0.7; stroke: #000000; stroke-width: 2; stroke-linejoin: miter"/>
   </g>
   <g id="PathCollection_1">
    <defs>
     <path id="mdfb8dc7449" d="M 0 5.477226 
C 1.452577 5.477226 2.845856 4.900111 3.872983 3.872983 
C 4.900111 2.845856 5.477226 1.452577 5.477226 0 
C 5.477226 -1.452577 4.900111 -2.845856 3.872983 -3.872983 
C 2.845856 -4.900111 1.452577 -5.477226 0 -5.477226 
C -1.452577 -5.477226 -2.845856 -4.900111 -3.872983 -3.872983 
C -4.900111 -2.845856 -5.477226 -1.452577 -5.477226 0 
C -5.477226 1.452577 -4.900111 2.845856 -3.872983 3.872983 
C -2.845856 4.900111 -1.452577 5.477226 0 5.477226 
z
" style="stroke: #006400; stroke-opacity: 0.7; stroke-width: 2"/>
    </defs>
    <g clip-path="url(#p416f26b46b)">
     <use xlink:href="#mdfb8dc7449" x="233.036084" y="184.598835" style="fill: #008000; fill-opacity: 0.7; stroke: #006400; stroke-opacity: 0.7; stroke-width: 2"/>
     <use xlink:href="#mdfb8dc7449" x="538.191021" y="249.567164" style="fill: #008000; fill-opacity: 0.7; stroke: #006400; stroke-opacity: 0.7; stroke-width: 2"/>
     <use xlink:href="#mdfb8dc7449" x="333.562878" y="228.738003" style="fill: #008000; fill-opacity: 0.7; stroke: #006400; stroke-opacity: 0.7; stroke-width: 2"/>
     <use xlink:href="#mdfb8dc7449" x="239.283374" y="220.167193" style="fill: #008000; fill-opacity: 0.7; stroke: #006400; stroke-opacity: 0.7; stroke-width: 2"/>
     <use xlink:href="#mdfb8dc7449" x="544.406052" y="278.697678" style="fill: #008000; fill-opacity: 0.7; stroke: #006400; stroke-opacity: 0.7; stroke-width: 2"/>
     <use xlink:href="#mdfb8dc7449" x="181.792285" y="212.13513" style="fill: #008000; fill-opacity: 0.7; stroke: #006400; stroke-opacity: 0.7; stroke-width: 2"/>
     <use xlink:href="#mdfb8dc7449" x="537.004824" y="199.67006" style="fill: #008000; fill-opacity: 0.7; stroke: #006400; stroke-opacity: 0.7; stroke-width: 2"/>
     <use xlink:href="#mdfb8dc7449" x="600.894985" y="230.721577" style="fill: #008000; fill-opacity: 0.7; stroke: #006400; stroke-opacity: 0.7; stroke-width: 2"/>
     <use xlink:href="#mdfb8dc7449" x="669.689845" y="186.176288" style="fill: #008000; fill-opacity: 0.7; stroke: #006400; stroke-opacity: 0.7; stroke-width: 2"/>
     <use xlink:href="#mdfb8dc7449" x="575.042486" y="211.535188" style="fill: #008000; fill-opacity: 0.7; stroke: #006400; stroke-opacity: 0.7; stroke-width: 2"/>
     <use xlink:href="#mdfb8dc7449" x="573.848881" y="225.616786" style="fill: #008000; fill-opacity: 0.7; stroke: #006400; stroke-opacity: 0.7; stroke-width: 2"/>
     <use xlink:href="#mdfb8dc7449" x="267.296145" y="205.530856" style="fill: #008000; fill-opacity: 0.7; stroke: #006400; stroke-opacity: 0.7; stroke-width: 2"/>
     <use xlink:href="#mdfb8dc7449" x="280.730791" y="216.838431" style="fill: #008000; fill-opacity: 0.7; stroke: #006400; stroke-opacity: 0.7; stroke-width: 2"/>
     <use xlink:href="#mdfb8dc7449" x="692.026736" y="273.050818" style="fill: #008000; fill-opacity: 0.7; stroke: #006400; stroke-opacity: 0.7; stroke-width: 2"/>
     <use xlink:href="#mdfb8dc7449" x="313.899552" y="219.124033" style="fill: #008000; fill-opacity: 0.7; stroke: #006400; stroke-opacity: 0.7; stroke-width: 2"/>
     <use xlink:href="#mdfb8dc7449" x="513.272827" y="239.051799" style="fill: #008000; fill-opacity: 0.7; stroke: #006400; stroke-opacity: 0.7; stroke-width: 2"/>
     <use xlink:href="#mdfb8dc7449" x="504.347708" y="242.738693" style="fill: #008000; fill-opacity: 0.7; stroke: #006400; stroke-opacity: 0.7; stroke-width: 2"/>
    </g>
   </g>
   <g id="PathCollection_2">
    <defs>
     <path id="m52f7609146" d="M -5.477226 5.477226 
L 5.477226 -5.477226 
M -5.477226 -5.477226 
L 5.477226 5.477226 
" style="stroke: #ff0000; stroke-opacity: 0.7; stroke-width: 3"/>
    </defs>
    <g clip-path="url(#p416f26b46b)">
     <use xlink:href="#m52f7609146" x="401.652941" y="186.493556" style="fill: #ff0000; fill-opacity: 0.7; stroke: #ff0000; stroke-opacity: 0.7; stroke-width: 3"/>
     <use xlink:href="#m52f7609146" x="298.102048" y="274.601783" style="fill: #ff0000; fill-opacity: 0.7; stroke: #ff0000; stroke-opacity: 0.7; stroke-width: 3"/>
     <use xlink:href="#m52f7609146" x="311.158983" y="250.30439" style="fill: #ff0000; fill-opacity: 0.7; stroke: #ff0000; stroke-opacity: 0.7; stroke-width: 3"/>
     <use xlink:href="#m52f7609146" x="386.908012" y="266.566085" style="fill: #ff0000; fill-opacity: 0.7; stroke: #ff0000; stroke-opacity: 0.7; stroke-width: 3"/>
     <use xlink:href="#m52f7609146" x="596.223096" y="260.625953" style="fill: #ff0000; fill-opacity: 0.7; stroke: #ff0000; stroke-opacity: 0.7; stroke-width: 3"/>
     <use xlink:href="#m52f7609146" x="480.230888" y="250.267716" style="fill: #ff0000; fill-opacity: 0.7; stroke: #ff0000; stroke-opacity: 0.7; stroke-width: 3"/>
     <use xlink:href="#m52f7609146" x="156.711268" y="231.457946" style="fill: #ff0000; fill-opacity: 0.7; stroke: #ff0000; stroke-opacity: 0.7; stroke-width: 3"/>
     <use xlink:href="#m52f7609146" x="681.749491" y="203.824543" style="fill: #ff0000; fill-opacity: 0.7; stroke: #ff0000; stroke-opacity: 0.7; stroke-width: 3"/>
     <use xlink:href="#m52f7609146" x="536.153838" y="271.600238" style="fill: #ff0000; fill-opacity: 0.7; stroke: #ff0000; stroke-opacity: 0.7; stroke-width: 3"/>
     <use xlink:href="#m52f7609146" x="408.215365" y="253.551153" style="fill: #ff0000; fill-opacity: 0.7; stroke: #ff0000; stroke-opacity: 0.7; stroke-width: 3"/>
     <use xlink:href="#m52f7609146" x="479.181307" y="266.424894" style="fill: #ff0000; fill-opacity: 0.7; stroke: #ff0000; stroke-opacity: 0.7; stroke-width: 3"/>
     <use xlink:href="#m52f7609146" x="463.923891" y="260.72052" style="fill: #ff0000; fill-opacity: 0.7; stroke: #ff0000; stroke-opacity: 0.7; stroke-width: 3"/>
     <use xlink:href="#m52f7609146" x="442.441848" y="204.205794" style="fill: #ff0000; fill-opacity: 0.7; stroke: #ff0000; stroke-opacity: 0.7; stroke-width: 3"/>
     <use xlink:href="#m52f7609146" x="508.105866" y="218.811575" style="fill: #ff0000; fill-opacity: 0.7; stroke: #ff0000; stroke-opacity: 0.7; stroke-width: 3"/>
     <use xlink:href="#m52f7609146" x="376.512799" y="208.318313" style="fill: #ff0000; fill-opacity: 0.7; stroke: #ff0000; stroke-opacity: 0.7; stroke-width: 3"/>
     <use xlink:href="#m52f7609146" x="280.937348" y="209.933279" style="fill: #ff0000; fill-opacity: 0.7; stroke: #ff0000; stroke-opacity: 0.7; stroke-width: 3"/>
     <use xlink:href="#m52f7609146" x="111.685334" y="217.517313" style="fill: #ff0000; fill-opacity: 0.7; stroke: #ff0000; stroke-opacity: 0.7; stroke-width: 3"/>
     <use xlink:href="#m52f7609146" x="341.510711" y="239.827639" style="fill: #ff0000; fill-opacity: 0.7; stroke: #ff0000; stroke-opacity: 0.7; stroke-width: 3"/>
     <use xlink:href="#m52f7609146" x="360.412176" y="264.421449" style="fill: #ff0000; fill-opacity: 0.7; stroke: #ff0000; stroke-opacity: 0.7; stroke-width: 3"/>
     <use xlink:href="#m52f7609146" x="511.612696" y="201.007548" style="fill: #ff0000; fill-opacity: 0.7; stroke: #ff0000; stroke-opacity: 0.7; stroke-width: 3"/>
     <use xlink:href="#m52f7609146" x="481.254995" y="191.885191" style="fill: #ff0000; fill-opacity: 0.7; stroke: #ff0000; stroke-opacity: 0.7; stroke-width: 3"/>
     <use xlink:href="#m52f7609146" x="423.646098" y="199.591835" style="fill: #ff0000; fill-opacity: 0.7; stroke: #ff0000; stroke-opacity: 0.7; stroke-width: 3"/>
     <use xlink:href="#m52f7609146" x="294.890341" y="258.411573" style="fill: #ff0000; fill-opacity: 0.7; stroke: #ff0000; stroke-opacity: 0.7; stroke-width: 3"/>
     <use xlink:href="#m52f7609146" x="377.218439" y="229.127123" style="fill: #ff0000; fill-opacity: 0.7; stroke: #ff0000; stroke-opacity: 0.7; stroke-width: 3"/>
     <use xlink:href="#m52f7609146" x="553.289874" y="255.482511" style="fill: #ff0000; fill-opacity: 0.7; stroke: #ff0000; stroke-opacity: 0.7; stroke-width: 3"/>
     <use xlink:href="#m52f7609146" x="527.122273" y="256.688749" style="fill: #ff0000; fill-opacity: 0.7; stroke: #ff0000; stroke-opacity: 0.7; stroke-width: 3"/>
     <use xlink:href="#m52f7609146" x="338.140991" y="213.991021" style="fill: #ff0000; fill-opacity: 0.7; stroke: #ff0000; stroke-opacity: 0.7; stroke-width: 3"/>
     <use xlink:href="#m52f7609146" x="398.557913" y="217.922464" style="fill: #ff0000; fill-opacity: 0.7; stroke: #ff0000; stroke-opacity: 0.7; stroke-width: 3"/>
     <use xlink:href="#m52f7609146" x="495.187528" y="248.672001" style="fill: #ff0000; fill-opacity: 0.7; stroke: #ff0000; stroke-opacity: 0.7; stroke-width: 3"/>
     <use xlink:href="#m52f7609146" x="384.13212" y="269.134455" style="fill: #ff0000; fill-opacity: 0.7; stroke: #ff0000; stroke-opacity: 0.7; stroke-width: 3"/>
     <use xlink:href="#m52f7609146" x="268.210352" y="191.774189" style="fill: #ff0000; fill-opacity: 0.7; stroke: #ff0000; stroke-opacity: 0.7; stroke-width: 3"/>
     <use xlink:href="#m52f7609146" x="387.897413" y="208.678637" style="fill: #ff0000; fill-opacity: 0.7; stroke: #ff0000; stroke-opacity: 0.7; stroke-width: 3"/>
     <use xlink:href="#m52f7609146" x="483.352099" y="212.04062" style="fill: #ff0000; fill-opacity: 0.7; stroke: #ff0000; stroke-opacity: 0.7; stroke-width: 3"/>
     <use xlink:href="#m52f7609146" x="336.44669" y="248.216017" style="fill: #ff0000; fill-opacity: 0.7; stroke: #ff0000; stroke-opacity: 0.7; stroke-width: 3"/>
     <use xlink:href="#m52f7609146" x="408.584115" y="224.239385" style="fill: #ff0000; fill-opacity: 0.7; stroke: #ff0000; stroke-opacity: 0.7; stroke-width: 3"/>
     <use xlink:href="#m52f7609146" x="214.318217" y="184.292769" style="fill: #ff0000; fill-opacity: 0.7; stroke: #ff0000; stroke-opacity: 0.7; stroke-width: 3"/>
     <use xlink:href="#m52f7609146" x="439.350336" y="252.621009" style="fill: #ff0000; fill-opacity: 0.7; stroke: #ff0000; stroke-opacity: 0.7; stroke-width: 3"/>
     <use xlink:href="#m52f7609146" x="661.463772" y="238.07055" style="fill: #ff0000; fill-opacity: 0.7; stroke: #ff0000; stroke-opacity: 0.7; stroke-width: 3"/>
     <use xlink:href="#m52f7609146" x="363.407583" y="242.323451" style="fill: #ff0000; fill-opacity: 0.7; stroke: #ff0000; stroke-opacity: 0.7; stroke-width: 3"/>
     <use xlink:href="#m52f7609146" x="488.067149" y="187.930676" style="fill: #ff0000; fill-opacity: 0.7; stroke: #ff0000; stroke-opacity: 0.7; stroke-width: 3"/>
     <use xlink:href="#m52f7609146" x="388.182077" y="182.610488" style="fill: #ff0000; fill-opacity: 0.7; stroke: #ff0000; stroke-opacity: 0.7; stroke-width: 3"/>
     <use xlink:href="#m52f7609146" x="605.651933" y="200.371751" style="fill: #ff0000; fill-opacity: 0.7; stroke: #ff0000; stroke-opacity: 0.7; stroke-width: 3"/>
     <use xlink:href="#m52f7609146" x="461.42273" y="201.538273" style="fill: #ff0000; fill-opacity: 0.7; stroke: #ff0000; stroke-opacity: 0.7; stroke-width: 3"/>
     <use xlink:href="#m52f7609146" x="520.532882" y="246.972766" style="fill: #ff0000; fill-opacity: 0.7; stroke: #ff0000; stroke-opacity: 0.7; stroke-width: 3"/>
     <use xlink:href="#m52f7609146" x="240.778498" y="234.377566" style="fill: #ff0000; fill-opacity: 0.7; stroke: #ff0000; stroke-opacity: 0.7; stroke-width: 3"/>
     <use xlink:href="#m52f7609146" x="238.526898" y="276.648502" style="fill: #ff0000; fill-opacity: 0.7; stroke: #ff0000; stroke-opacity: 0.7; stroke-width: 3"/>
     <use xlink:href="#m52f7609146" x="344.417199" y="204.33182" style="fill: #ff0000; fill-opacity: 0.7; stroke: #ff0000; stroke-opacity: 0.7; stroke-width: 3"/>
     <use xlink:href="#m52f7609146" x="248.570766" y="227.886978" style="fill: #ff0000; fill-opacity: 0.7; stroke: #ff0000; stroke-opacity: 0.7; stroke-width: 3"/>
     <use xlink:href="#m52f7609146" x="560.236116" y="229.372924" style="fill: #ff0000; fill-opacity: 0.7; stroke: #ff0000; stroke-opacity: 0.7; stroke-width: 3"/>
     <use xlink:href="#m52f7609146" x="428.019094" y="239.968792" style="fill: #ff0000; fill-opacity: 0.7; stroke: #ff0000; stroke-opacity: 0.7; stroke-width: 3"/>
     <use xlink:href="#m52f7609146" x="483.931567" y="209.799919" style="fill: #ff0000; fill-opacity: 0.7; stroke: #ff0000; stroke-opacity: 0.7; stroke-width: 3"/>
     <use xlink:href="#m52f7609146" x="243.610546" y="195.895697" style="fill: #ff0000; fill-opacity: 0.7; stroke: #ff0000; stroke-opacity: 0.7; stroke-width: 3"/>
     <use xlink:href="#m52f7609146" x="329.771327" y="233.60038" style="fill: #ff0000; fill-opacity: 0.7; stroke: #ff0000; stroke-opacity: 0.7; stroke-width: 3"/>
     <use xlink:href="#m52f7609146" x="388.774978" y="217.647284" style="fill: #ff0000; fill-opacity: 0.7; stroke: #ff0000; stroke-opacity: 0.7; stroke-width: 3"/>
     <use xlink:href="#m52f7609146" x="461.278315" y="195.794108" style="fill: #ff0000; fill-opacity: 0.7; stroke: #ff0000; stroke-opacity: 0.7; stroke-width: 3"/>
     <use xlink:href="#m52f7609146" x="526.270081" y="277.71817" style="fill: #ff0000; fill-opacity: 0.7; stroke: #ff0000; stroke-opacity: 0.7; stroke-width: 3"/>
     <use xlink:href="#m52f7609146" x="406.092363" y="185.45948" style="fill: #ff0000; fill-opacity: 0.7; stroke: #ff0000; stroke-opacity: 0.7; stroke-width: 3"/>
     <use xlink:href="#m52f7609146" x="144.962263" y="278.536389" style="fill: #ff0000; fill-opacity: 0.7; stroke: #ff0000; stroke-opacity: 0.7; stroke-width: 3"/>
     <use xlink:href="#m52f7609146" x="249.161681" y="196.940524" style="fill: #ff0000; fill-opacity: 0.7; stroke: #ff0000; stroke-opacity: 0.7; stroke-width: 3"/>
     <use xlink:href="#m52f7609146" x="278.52236" y="211.562684" style="fill: #ff0000; fill-opacity: 0.7; stroke: #ff0000; stroke-opacity: 0.7; stroke-width: 3"/>
     <use xlink:href="#m52f7609146" x="478.263707" y="252.496423" style="fill: #ff0000; fill-opacity: 0.7; stroke: #ff0000; stroke-opacity: 0.7; stroke-width: 3"/>
     <use xlink:href="#m52f7609146" x="567.044254" y="239.607056" style="fill: #ff0000; fill-opacity: 0.7; stroke: #ff0000; stroke-opacity: 0.7; stroke-width: 3"/>
     <use xlink:href="#m52f7609146" x="538.567602" y="195.604297" style="fill: #ff0000; fill-opacity: 0.7; stroke: #ff0000; stroke-opacity: 0.7; stroke-width: 3"/>
     <use xlink:href="#m52f7609146" x="271.844399" y="191.247379" style="fill: #ff0000; fill-opacity: 0.7; stroke: #ff0000; stroke-opacity: 0.7; stroke-width: 3"/>
     <use xlink:href="#m52f7609146" x="523.140769" y="241.918366" style="fill: #ff0000; fill-opacity: 0.7; stroke: #ff0000; stroke-opacity: 0.7; stroke-width: 3"/>
     <use xlink:href="#m52f7609146" x="375.541787" y="186.557944" style="fill: #ff0000; fill-opacity: 0.7; stroke: #ff0000; stroke-opacity: 0.7; stroke-width: 3"/>
     <use xlink:href="#m52f7609146" x="309.636824" y="251.393262" style="fill: #ff0000; fill-opacity: 0.7; stroke: #ff0000; stroke-opacity: 0.7; stroke-width: 3"/>
     <use xlink:href="#m52f7609146" x="471.836202" y="202.394757" style="fill: #ff0000; fill-opacity: 0.7; stroke: #ff0000; stroke-opacity: 0.7; stroke-width: 3"/>
     <use xlink:href="#m52f7609146" x="484.403788" y="236.753179" style="fill: #ff0000; fill-opacity: 0.7; stroke: #ff0000; stroke-opacity: 0.7; stroke-width: 3"/>
     <use xlink:href="#m52f7609146" x="290.077977" y="205.169139" style="fill: #ff0000; fill-opacity: 0.7; stroke: #ff0000; stroke-opacity: 0.7; stroke-width: 3"/>
     <use xlink:href="#m52f7609146" x="555.899587" y="273.15284" style="fill: #ff0000; fill-opacity: 0.7; stroke: #ff0000; stroke-opacity: 0.7; stroke-width: 3"/>
     <use xlink:href="#m52f7609146" x="137.199328" y="182.947505" style="fill: #ff0000; fill-opacity: 0.7; stroke: #ff0000; stroke-opacity: 0.7; stroke-width: 3"/>
     <use xlink:href="#m52f7609146" x="672.926329" y="183.010537" style="fill: #ff0000; fill-opacity: 0.7; stroke: #ff0000; stroke-opacity: 0.7; stroke-width: 3"/>
     <use xlink:href="#m52f7609146" x="467.065087" y="225.21701" style="fill: #ff0000; fill-opacity: 0.7; stroke: #ff0000; stroke-opacity: 0.7; stroke-width: 3"/>
     <use xlink:href="#m52f7609146" x="332.656287" y="279.21432" style="fill: #ff0000; fill-opacity: 0.7; stroke: #ff0000; stroke-opacity: 0.7; stroke-width: 3"/>
     <use xlink:href="#m52f7609146" x="279.917345" y="216.25389" style="fill: #ff0000; fill-opacity: 0.7; stroke: #ff0000; stroke-opacity: 0.7; stroke-width: 3"/>
     <use xlink:href="#m52f7609146" x="400.972793" y="252.133435" style="fill: #ff0000; fill-opacity: 0.7; stroke: #ff0000; stroke-opacity: 0.7; stroke-width: 3"/>
     <use xlink:href="#m52f7609146" x="104.468222" y="184.601904" style="fill: #ff0000; fill-opacity: 0.7; stroke: #ff0000; stroke-opacity: 0.7; stroke-width: 3"/>
     <use xlink:href="#m52f7609146" x="395.201042" y="211.660254" style="fill: #ff0000; fill-opacity: 0.7; stroke: #ff0000; stroke-opacity: 0.7; stroke-width: 3"/>
     <use xlink:href="#m52f7609146" x="267.020032" y="222.724493" style="fill: #ff0000; fill-opacity: 0.7; stroke: #ff0000; stroke-opacity: 0.7; stroke-width: 3"/>
     <use xlink:href="#m52f7609146" x="428.810968" y="227.418936" style="fill: #ff0000; fill-opacity: 0.7; stroke: #ff0000; stroke-opacity: 0.7; stroke-width: 3"/>
     <use xlink:href="#m52f7609146" x="298.838719" y="190.420792" style="fill: #ff0000; fill-opacity: 0.7; stroke: #ff0000; stroke-opacity: 0.7; stroke-width: 3"/>
     <use xlink:href="#m52f7609146" x="233.84921" y="243.175708" style="fill: #ff0000; fill-opacity: 0.7; stroke: #ff0000; stroke-opacity: 0.7; stroke-width: 3"/>
    </g>
   </g>
   <g id="matplotlib.axis_1">
    <g id="xtick_1">
     <g id="line2d_1">
      <path d="M 135.88125 675.16 
L 135.88125 43.44 
" clip-path="url(#p416f26b46b)" style="fill: none; stroke: #b0b0b0; stroke-opacity: 0.3; stroke-width: 0.8; stroke-linecap: square"/>
     </g>
     <g id="line2d_2">
      <defs>
       <path id="m52df894aa3" d="M 0 0 
L 0 3.5 
" style="stroke: #000000; stroke-width: 0.8"/>
      </defs>
      <g>
       <use xlink:href="#m52df894aa3" x="135.88125" y="675.16" style="stroke: #000000; stroke-width: 0.8"/>
      </g>
     </g>
     <g id="text_1">
      <!-- −15 -->
      <g transform="translate(125.328906 689.758438) scale(0.1 -0.1)">
       <defs>
        <path id="DejaVuSans-2212" d="M 678 2272 
L 4684 2272 
L 4684 1741 
L 678 1741 
L 678 2272 
z
" transform="scale(0.015625)"/>
        <path id="DejaVuSans-31" d="M 794 531 
L 1825 531 
L 1825 4091 
L 703 3866 
L 703 4441 
L 1819 4666 
L 2450 4666 
L 2450 531 
L 3481 531 
L 3481 0 
L 794 0 
L 794 531 
z
" transform="scale(0.015625)"/>
        <path id="DejaVuSans-35" d="M 691 4666 
L 3169 4666 
L 3169 4134 
L 1269 4134 
L 1269 2991 
Q 1406 3038 1543 3061 
Q 1681 3084 1819 3084 
Q 2600 3084 3056 2656 
Q 3513 2228 3513 1497 
Q 3513 744 3044 326 
Q 2575 -91 1722 -91 
Q 1428 -91 1123 -41 
Q 819 9 494 109 
L 494 744 
Q 775 591 1075 516 
Q 1375 441 1709 441 
Q 2250 441 2565 725 
Q 2881 1009 2881 1497 
Q 2881 1984 2565 2268 
Q 2250 2553 1709 2553 
Q 1456 2553 1204 2497 
Q 953 2441 691 2322 
L 691 4666 
z
" transform="scale(0.015625)"/>
       </defs>
       <use xlink:href="#DejaVuSans-2212"/>
       <use xlink:href="#DejaVuSans-31" transform="translate(83.789062 0)"/>
       <use xlink:href="#DejaVuSans-35" transform="translate(147.412109 0)"/>
      </g>
     </g>
    </g>
    <g id="xtick_2">
     <g id="line2d_3">
      <path d="M 234.5875 675.16 
L 234.5875 43.44 
" clip-path="url(#p416f26b46b)" style="fill: none; stroke: #b0b0b0; stroke-opacity: 0.3; stroke-width: 0.8; stroke-linecap: square"/>
     </g>
     <g id="line2d_4">
      <g>
       <use xlink:href="#m52df894aa3" x="234.5875" y="675.16" style="stroke: #000000; stroke-width: 0.8"/>
      </g>
     </g>
     <g id="text_2">
      <!-- −10 -->
      <g transform="translate(224.035156 689.758438) scale(0.1 -0.1)">
       <defs>
        <path id="DejaVuSans-30" d="M 2034 4250 
Q 1547 4250 1301 3770 
Q 1056 3291 1056 2328 
Q 1056 1369 1301 889 
Q 1547 409 2034 409 
Q 2525 409 2770 889 
Q 3016 1369 3016 2328 
Q 3016 3291 2770 3770 
Q 2525 4250 2034 4250 
z
M 2034 4750 
Q 2819 4750 3233 4129 
Q 3647 3509 3647 2328 
Q 3647 1150 3233 529 
Q 2819 -91 2034 -91 
Q 1250 -91 836 529 
Q 422 1150 422 2328 
Q 422 3509 836 4129 
Q 1250 4750 2034 4750 
z
" transform="scale(0.015625)"/>
       </defs>
       <use xlink:href="#DejaVuSans-2212"/>
       <use xlink:href="#DejaVuSans-31" transform="translate(83.789062 0)"/>
       <use xlink:href="#DejaVuSans-30" transform="translate(147.412109 0)"/>
      </g>
     </g>
    </g>
    <g id="xtick_3">
     <g id="line2d_5">
      <path d="M 333.29375 675.16 
L 333.29375 43.44 
" clip-path="url(#p416f26b46b)" style="fill: none; stroke: #b0b0b0; stroke-opacity: 0.3; stroke-width: 0.8; stroke-linecap: square"/>
     </g>
     <g id="line2d_6">
      <g>
       <use xlink:href="#m52df894aa3" x="333.29375" y="675.16" style="stroke: #000000; stroke-width: 0.8"/>
      </g>
     </g>
     <g id="text_3">
      <!-- −5 -->
      <g transform="translate(325.922656 689.758438) scale(0.1 -0.1)">
       <use xlink:href="#DejaVuSans-2212"/>
       <use xlink:href="#DejaVuSans-35" transform="translate(83.789062 0)"/>
      </g>
     </g>
    </g>
    <g id="xtick_4">
     <g id="line2d_7">
      <path d="M 432 675.16 
L 432 43.44 
" clip-path="url(#p416f26b46b)" style="fill: none; stroke: #b0b0b0; stroke-opacity: 0.3; stroke-width: 0.8; stroke-linecap: square"/>
     </g>
     <g id="line2d_8">
      <g>
       <use xlink:href="#m52df894aa3" x="432" y="675.16" style="stroke: #000000; stroke-width: 0.8"/>
      </g>
     </g>
     <g id="text_4">
      <!-- 0 -->
      <g transform="translate(428.81875 689.758438) scale(0.1 -0.1)">
       <use xlink:href="#DejaVuSans-30"/>
      </g>
     </g>
    </g>
    <g id="xtick_5">
     <g id="line2d_9">
      <path d="M 530.70625 675.16 
L 530.70625 43.44 
" clip-path="url(#p416f26b46b)" style="fill: none; stroke: #b0b0b0; stroke-opacity: 0.3; stroke-width: 0.8; stroke-linecap: square"/>
     </g>
     <g id="line2d_10">
      <g>
       <use xlink:href="#m52df894aa3" x="530.70625" y="675.16" style="stroke: #000000; stroke-width: 0.8"/>
      </g>
     </g>
     <g id="text_5">
      <!-- 5 -->
      <g transform="translate(527.525 689.758438) scale(0.1 -0.1)">
       <use xlink:href="#DejaVuSans-35"/>
      </g>
     </g>
    </g>
    <g id="xtick_6">
     <g id="line2d_11">
      <path d="M 629.4125 675.16 
L 629.4125 43.44 
" clip-path="url(#p416f26b46b)" style="fill: none; stroke: #b0b0b0; stroke-opacity: 0.3; stroke-width: 0.8; stroke-linecap: square"/>
     </g>
     <g id="line2d_12">
      <g>
       <use xlink:href="#m52df894aa3" x="629.4125" y="675.16" style="stroke: #000000; stroke-width: 0.8"/>
      </g>
     </g>
     <g id="text_6">
      <!-- 10 -->
      <g transform="translate(623.05 689.758438) scale(0.1 -0.1)">
       <use xlink:href="#DejaVuSans-31"/>
       <use xlink:href="#DejaVuSans-30" transform="translate(63.623047 0)"/>
      </g>
     </g>
    </g>
    <g id="xtick_7">
     <g id="line2d_13">
      <path d="M 728.11875 675.16 
L 728.11875 43.44 
" clip-path="url(#p416f26b46b)" style="fill: none; stroke: #b0b0b0; stroke-opacity: 0.3; stroke-width: 0.8; stroke-linecap: square"/>
     </g>
     <g id="line2d_14">
      <g>
       <use xlink:href="#m52df894aa3" x="728.11875" y="675.16" style="stroke: #000000; stroke-width: 0.8"/>
      </g>
     </g>
     <g id="text_7">
      <!-- 15 -->
      <g transform="translate(721.75625 689.758438) scale(0.1 -0.1)">
       <use xlink:href="#DejaVuSans-31"/>
       <use xlink:href="#DejaVuSans-35" transform="translate(63.623047 0)"/>
      </g>
     </g>
    </g>
    <g id="text_8">
     <!-- X Position (m) -->
     <g transform="translate(390.193125 704.95625) scale(0.12 -0.12)">
      <defs>
       <path id="DejaVuSans-58" d="M 403 4666 
L 1081 4666 
L 2241 2931 
L 3406 4666 
L 4084 4666 
L 2584 2425 
L 4184 0 
L 3506 0 
L 2194 1984 
L 872 0 
L 191 0 
L 1856 2491 
L 403 4666 
z
" transform="scale(0.015625)"/>
       <path id="DejaVuSans-20" transform="scale(0.015625)"/>
       <path id="DejaVuSans-50" d="M 1259 4147 
L 1259 2394 
L 2053 2394 
Q 2494 2394 2734 2622 
Q 2975 2850 2975 3272 
Q 2975 3691 2734 3919 
Q 2494 4147 2053 4147 
L 1259 4147 
z
M 628 4666 
L 2053 4666 
Q 2838 4666 3239 4311 
Q 3641 3956 3641 3272 
Q 3641 2581 3239 2228 
Q 2838 1875 2053 1875 
L 1259 1875 
L 1259 0 
L 628 0 
L 628 4666 
z
" transform="scale(0.015625)"/>
       <path id="DejaVuSans-6f" d="M 1959 3097 
Q 1497 3097 1228 2736 
Q 959 2375 959 1747 
Q 959 1119 1226 758 
Q 1494 397 1959 397 
Q 2419 397 2687 759 
Q 2956 1122 2956 1747 
Q 2956 2369 2687 2733 
Q 2419 3097 1959 3097 
z
M 1959 3584 
Q 2709 3584 3137 3096 
Q 3566 2609 3566 1747 
Q 3566 888 3137 398 
Q 2709 -91 1959 -91 
Q 1206 -91 779 398 
Q 353 888 353 1747 
Q 353 2609 779 3096 
Q 1206 3584 1959 3584 
z
" transform="scale(0.015625)"/>
       <path id="DejaVuSans-73" d="M 2834 3397 
L 2834 2853 
Q 2591 2978 2328 3040 
Q 2066 3103 1784 3103 
Q 1356 3103 1142 2972 
Q 928 2841 928 2578 
Q 928 2378 1081 2264 
Q 1234 2150 1697 2047 
L 1894 2003 
Q 2506 1872 2764 1633 
Q 3022 1394 3022 966 
Q 3022 478 2636 193 
Q 2250 -91 1575 -91 
Q 1294 -91 989 -36 
Q 684 19 347 128 
L 347 722 
Q 666 556 975 473 
Q 1284 391 1588 391 
Q 1994 391 2212 530 
Q 2431 669 2431 922 
Q 2431 1156 2273 1281 
Q 2116 1406 1581 1522 
L 1381 1569 
Q 847 1681 609 1914 
Q 372 2147 372 2553 
Q 372 3047 722 3315 
Q 1072 3584 1716 3584 
Q 2034 3584 2315 3537 
Q 2597 3491 2834 3397 
z
" transform="scale(0.015625)"/>
       <path id="DejaVuSans-69" d="M 603 3500 
L 1178 3500 
L 1178 0 
L 603 0 
L 603 3500 
z
M 603 4863 
L 1178 4863 
L 1178 4134 
L 603 4134 
L 603 4863 
z
" transform="scale(0.015625)"/>
       <path id="DejaVuSans-74" d="M 1172 4494 
L 1172 3500 
L 2356 3500 
L 2356 3053 
L 1172 3053 
L 1172 1153 
Q 1172 725 1289 603 
Q 1406 481 1766 481 
L 2356 481 
L 2356 0 
L 1766 0 
Q 1100 0 847 248 
Q 594 497 594 1153 
L 594 3053 
L 172 3053 
L 172 3500 
L 594 3500 
L 594 4494 
L 1172 4494 
z
" transform="scale(0.015625)"/>
       <path id="DejaVuSans-6e" d="M 3513 2113 
L 3513 0 
L 2938 0 
L 2938 2094 
Q 2938 2591 2744 2837 
Q 2550 3084 2163 3084 
Q 1697 3084 1428 2787 
Q 1159 2491 1159 1978 
L 1159 0 
L 581 0 
L 581 3500 
L 1159 3500 
L 1159 2956 
Q 1366 3272 1645 3428 
Q 1925 3584 2291 3584 
Q 2894 3584 3203 3211 
Q 3513 2838 3513 2113 
z
" transform="scale(0.015625)"/>
       <path id="DejaVuSans-28" d="M 1984 4856 
Q 1566 4138 1362 3434 
Q 1159 2731 1159 2009 
Q 1159 1288 1364 580 
Q 1569 -128 1984 -844 
L 1484 -844 
Q 1016 -109 783 600 
Q 550 1309 550 2009 
Q 550 2706 781 3412 
Q 1013 4119 1484 4856 
L 1984 4856 
z
" transform="scale(0.015625)"/>
       <path id="DejaVuSans-6d" d="M 3328 2828 
Q 3544 3216 3844 3400 
Q 4144 3584 4550 3584 
Q 5097 3584 5394 3201 
Q 5691 2819 5691 2113 
L 5691 0 
L 5113 0 
L 5113 2094 
Q 5113 2597 4934 2840 
Q 4756 3084 4391 3084 
Q 3944 3084 3684 2787 
Q 3425 2491 3425 1978 
L 3425 0 
L 2847 0 
L 2847 2094 
Q 2847 2600 2669 2842 
Q 2491 3084 2119 3084 
Q 1678 3084 1418 2786 
Q 1159 2488 1159 1978 
L 1159 0 
L 581 0 
L 581 3500 
L 1159 3500 
L 1159 2956 
Q 1356 3278 1631 3431 
Q 1906 3584 2284 3584 
Q 2666 3584 2933 3390 
Q 3200 3197 3328 2828 
z
" transform="scale(0.015625)"/>
       <path id="DejaVuSans-29" d="M 513 4856 
L 1013 4856 
Q 1481 4119 1714 3412 
Q 1947 2706 1947 2009 
Q 1947 1309 1714 600 
Q 1481 -109 1013 -844 
L 513 -844 
Q 928 -128 1133 580 
Q 1338 1288 1338 2009 
Q 1338 2731 1133 3434 
Q 928 4138 513 4856 
z
" transform="scale(0.015625)"/>
      </defs>
      <use xlink:href="#DejaVuSans-58"/>
      <use xlink:href="#DejaVuSans-20" transform="translate(68.505859 0)"/>
      <use xlink:href="#DejaVuSans-50" transform="translate(100.292969 0)"/>
      <use xlink:href="#DejaVuSans-6f" transform="translate(156.970703 0)"/>
      <use xlink:href="#DejaVuSans-73" transform="translate(218.152344 0)"/>
      <use xlink:href="#DejaVuSans-69" transform="translate(270.251953 0)"/>
      <use xlink:href="#DejaVuSans-74" transform="translate(298.035156 0)"/>
      <use xlink:href="#DejaVuSans-69" transform="translate(337.244141 0)"/>
      <use xlink:href="#DejaVuSans-6f" transform="translate(365.027344 0)"/>
      <use xlink:href="#DejaVuSans-6e" transform="translate(426.208984 0)"/>
      <use xlink:href="#DejaVuSans-20" transform="translate(489.587891 0)"/>
      <use xlink:href="#DejaVuSans-28" transform="translate(521.375 0)"/>
      <use xlink:href="#DejaVuSans-6d" transform="translate(560.388672 0)"/>
      <use xlink:href="#DejaVuSans-29" transform="translate(657.800781 0)"/>
     </g>
    </g>
   </g>
   <g id="matplotlib.axis_2">
    <g id="ytick_1">
     <g id="line2d_15">
      <path d="M 116.14 655.41875 
L 747.86 655.41875 
" clip-path="url(#p416f26b46b)" style="fill: none; stroke: #b0b0b0; stroke-opacity: 0.3; stroke-width: 0.8; stroke-linecap: square"/>
     </g>
     <g id="line2d_16">
      <defs>
       <path id="m783e77b13e" d="M 0 0 
L -3.5 0 
" style="stroke: #000000; stroke-width: 0.8"/>
      </defs>
      <g>
       <use xlink:href="#m783e77b13e" x="116.14" y="655.41875" style="stroke: #000000; stroke-width: 0.8"/>
      </g>
     </g>
     <g id="text_9">
      <!-- −15 -->
      <g transform="translate(88.035312 659.217969) scale(0.1 -0.1)">
       <use xlink:href="#DejaVuSans-2212"/>
       <use xlink:href="#DejaVuSans-31" transform="translate(83.789062 0)"/>
       <use xlink:href="#DejaVuSans-35" transform="translate(147.412109 0)"/>
      </g>
     </g>
    </g>
    <g id="ytick_2">
     <g id="line2d_17">
      <path d="M 116.14 556.7125 
L 747.86 556.7125 
" clip-path="url(#p416f26b46b)" style="fill: none; stroke: #b0b0b0; stroke-opacity: 0.3; stroke-width: 0.8; stroke-linecap: square"/>
     </g>
     <g id="line2d_18">
      <g>
       <use xlink:href="#m783e77b13e" x="116.14" y="556.7125" style="stroke: #000000; stroke-width: 0.8"/>
      </g>
     </g>
     <g id="text_10">
      <!-- −10 -->
      <g transform="translate(88.035312 560.511719) scale(0.1 -0.1)">
       <use xlink:href="#DejaVuSans-2212"/>
       <use xlink:href="#DejaVuSans-31" transform="translate(83.789062 0)"/>
       <use xlink:href="#DejaVuSans-30" transform="translate(147.412109 0)"/>
      </g>
     </g>
    </g>
    <g id="ytick_3">
     <g id="line2d_19">
      <path d="M 116.14 458.00625 
L 747.86 458.00625 
" clip-path="url(#p416f26b46b)" style="fill: none; stroke: #b0b0b0; stroke-opacity: 0.3; stroke-width: 0.8; stroke-linecap: square"/>
     </g>
     <g id="line2d_20">
      <g>
       <use xlink:href="#m783e77b13e" x="116.14" y="458.00625" style="stroke: #000000; stroke-width: 0.8"/>
      </g>
     </g>
     <g id="text_11">
      <!-- −5 -->
      <g transform="translate(94.397812 461.805469) scale(0.1 -0.1)">
       <use xlink:href="#DejaVuSans-2212"/>
       <use xlink:href="#DejaVuSans-35" transform="translate(83.789062 0)"/>
      </g>
     </g>
    </g>
    <g id="ytick_4">
     <g id="line2d_21">
      <path d="M 116.14 359.3 
L 747.86 359.3 
" clip-path="url(#p416f26b46b)" style="fill: none; stroke: #b0b0b0; stroke-opacity: 0.3; stroke-width: 0.8; stroke-linecap: square"/>
     </g>
     <g id="line2d_22">
      <g>
       <use xlink:href="#m783e77b13e" x="116.14" y="359.3" style="stroke: #000000; stroke-width: 0.8"/>
      </g>
     </g>
     <g id="text_12">
      <!-- 0 -->
      <g transform="translate(102.7775 363.099219) scale(0.1 -0.1)">
       <use xlink:href="#DejaVuSans-30"/>
      </g>
     </g>
    </g>
    <g id="ytick_5">
     <g id="line2d_23">
      <path d="M 116.14 260.59375 
L 747.86 260.59375 
" clip-path="url(#p416f26b46b)" style="fill: none; stroke: #b0b0b0; stroke-opacity: 0.3; stroke-width: 0.8; stroke-linecap: square"/>
     </g>
     <g id="line2d_24">
      <g>
       <use xlink:href="#m783e77b13e" x="116.14" y="260.59375" style="stroke: #000000; stroke-width: 0.8"/>
      </g>
     </g>
     <g id="text_13">
      <!-- 5 -->
      <g transform="translate(102.7775 264.392969) scale(0.1 -0.1)">
       <use xlink:href="#DejaVuSans-35"/>
      </g>
     </g>
    </g>
    <g id="ytick_6">
     <g id="line2d_25">
      <path d="M 116.14 161.8875 
L 747.86 161.8875 
" clip-path="url(#p416f26b46b)" style="fill: none; stroke: #b0b0b0; stroke-opacity: 0.3; stroke-width: 0.8; stroke-linecap: square"/>
     </g>
     <g id="line2d_26">
      <g>
       <use xlink:href="#m783e77b13e" x="116.14" y="161.8875" style="stroke: #000000; stroke-width: 0.8"/>
      </g>
     </g>
     <g id="text_14">
      <!-- 10 -->
      <g transform="translate(96.415 165.686719) scale(0.1 -0.1)">
       <use xlink:href="#DejaVuSans-31"/>
       <use xlink:href="#DejaVuSans-30" transform="translate(63.623047 0)"/>
      </g>
     </g>
    </g>
    <g id="ytick_7">
     <g id="line2d_27">
      <path d="M 116.14 63.18125 
L 747.86 63.18125 
" clip-path="url(#p416f26b46b)" style="fill: none; stroke: #b0b0b0; stroke-opacity: 0.3; stroke-width: 0.8; stroke-linecap: square"/>
     </g>
     <g id="line2d_28">
      <g>
       <use xlink:href="#m783e77b13e" x="116.14" y="63.18125" style="stroke: #000000; stroke-width: 0.8"/>
      </g>
     </g>
     <g id="text_15">
      <!-- 15 -->
      <g transform="translate(96.415 66.980469) scale(0.1 -0.1)">
       <use xlink:href="#DejaVuSans-31"/>
       <use xlink:href="#DejaVuSans-35" transform="translate(63.623047 0)"/>
      </g>
     </g>
    </g>
    <g id="text_16">
     <!-- Y Position (m) -->
     <g transform="translate(81.539687 400.661563) rotate(-90) scale(0.12 -0.12)">
      <defs>
       <path id="DejaVuSans-59" d="M -13 4666 
L 666 4666 
L 1959 2747 
L 3244 4666 
L 3922 4666 
L 2272 2222 
L 2272 0 
L 1638 0 
L 1638 2222 
L -13 4666 
z
" transform="scale(0.015625)"/>
      </defs>
      <use xlink:href="#DejaVuSans-59"/>
      <use xlink:href="#DejaVuSans-20" transform="translate(61.083984 0)"/>
      <use xlink:href="#DejaVuSans-50" transform="translate(92.871094 0)"/>
      <use xlink:href="#DejaVuSans-6f" transform="translate(149.548828 0)"/>
      <use xlink:href="#DejaVuSans-73" transform="translate(210.730469 0)"/>
      <use xlink:href="#DejaVuSans-69" transform="translate(262.830078 0)"/>
      <use xlink:href="#DejaVuSans-74" transform="translate(290.613281 0)"/>
      <use xlink:href="#DejaVuSans-69" transform="translate(329.822266 0)"/>
      <use xlink:href="#DejaVuSans-6f" transform="translate(357.605469 0)"/>
      <use xlink:href="#DejaVuSans-6e" transform="translate(418.787109 0)"/>
      <use xlink:href="#DejaVuSans-20" transform="translate(482.166016 0)"/>
      <use xlink:href="#DejaVuSans-28" transform="translate(513.953125 0)"/>
      <use xlink:href="#DejaVuSans-6d" transform="translate(552.966797 0)"/>
      <use xlink:href="#DejaVuSans-29" transform="translate(650.378906 0)"/>
     </g>
    </g>
   </g>
   <g id="line2d_29">
    <path d="M 155.6225 596.195 
L 708.3775 596.195 
" clip-path="url(#p416f26b46b)" style="fill: none; stroke: #000000; stroke-opacity: 0.3; stroke-linecap: square"/>
   </g>
   <g id="line2d_30">
    <path d="M 155.6225 458.00625 
L 708.3775 458.00625 
" clip-path="url(#p416f26b46b)" style="fill: none; stroke: #000000; stroke-opacity: 0.3; stroke-linecap: square"/>
   </g>
   <g id="line2d_31">
    <path d="M 155.6225 319.8175 
L 708.3775 319.8175 
" clip-path="url(#p416f26b46b)" style="fill: none; stroke: #000000; stroke-opacity: 0.3; stroke-linecap: square"/>
   </g>
   <g id="line2d_32">
    <path d="M 155.6225 596.195 
L 155.6225 319.8175 
" clip-path="url(#p416f26b46b)" style="fill: none; stroke: #000000; stroke-opacity: 0.3; stroke-linecap: square"/>
   </g>
   <g id="line2d_33">
    <path d="M 224.716875 596.195 
L 224.716875 319.8175 
" clip-path="url(#p416f26b46b)" style="fill: none; stroke: #000000; stroke-opacity: 0.3; stroke-linecap: square"/>
   </g>
   <g id="line2d_34">
    <path d="M 293.81125 596.195 
L 293.81125 319.8175 
" clip-path="url(#p416f26b46b)" style="fill: none; stroke: #000000; stroke-opacity: 0.3; stroke-linecap: square"/>
   </g>
   <g id="line2d_35">
    <path d="M 362.905625 596.195 
L 362.905625 319.8175 
" clip-path="url(#p416f26b46b)" style="fill: none; stroke: #000000; stroke-opacity: 0.3; stroke-linecap: square"/>
   </g>
   <g id="line2d_36">
    <path d="M 432 596.195 
L 432 319.8175 
" clip-path="url(#p416f26b46b)" style="fill: none; stroke: #000000; stroke-opacity: 0.3; stroke-linecap: square"/>
   </g>
   <g id="line2d_37">
    <path d="M 501.094375 596.195 
L 501.094375 319.8175 
" clip-path="url(#p416f26b46b)" style="fill: none; stroke: #000000; stroke-opacity: 0.3; stroke-linecap: square"/>
   </g>
   <g id="line2d_38">
    <path d="M 570.18875 596.195 
L 570.18875 319.8175 
" clip-path="url(#p416f26b46b)" style="fill: none; stroke: #000000; stroke-opacity: 0.3; stroke-linecap: square"/>
   </g>
   <g id="line2d_39">
    <path d="M 639.283125 596.195 
L 639.283125 319.8175 
" clip-path="url(#p416f26b46b)" style="fill: none; stroke: #000000; stroke-opacity: 0.3; stroke-linecap: square"/>
   </g>
   <g id="line2d_40">
    <path d="M 708.3775 596.195 
L 708.3775 319.8175 
" clip-path="url(#p416f26b46b)" style="fill: none; stroke: #000000; stroke-opacity: 0.3; stroke-linecap: square"/>
   </g>
   <g id="patch_40">
    <path d="M 116.14 675.16 
L 116.14 43.44 
" style="fill: none; stroke: #000000; stroke-width: 0.8; stroke-linejoin: miter; stroke-linecap: square"/>
   </g>
   <g id="patch_41">
    <path d="M 747.86 675.16 
L 747.86 43.44 
" style="fill: none; stroke: #000000; stroke-width: 0.8; stroke-linejoin: miter; stroke-linecap: square"/>
   </g>
   <g id="patch_42">
    <path d="M 116.14 675.16 
L 747.86 675.16 
" style="fill: none; stroke: #000000; stroke-width: 0.8; stroke-linejoin: miter; stroke-linecap: square"/>
   </g>
   <g id="patch_43">
    <path d="M 116.14 43.44 
L 747.86 43.44 
" style="fill: none; stroke: #000000; stroke-width: 0.8; stroke-linejoin: miter; stroke-linecap: square"/>
   </g>
   <g id="text_17">
    <g id="patch_44">
     <path d="M 394.669688 532.571875 
L 400.235938 532.571875 
Q 401.835938 532.571875 401.835938 530.971875 
L 401.835938 523.229375 
Q 401.835938 521.629375 400.235938 521.629375 
L 394.669688 521.629375 
Q 393.069688 521.629375 393.069688 523.229375 
L 393.069688 530.971875 
Q 393.069688 532.571875 394.669688 532.571875 
z
" style="fill: #90ee90; opacity: 0.7; stroke: #000000; stroke-linejoin: miter"/>
    </g>
    <!-- 4 -->
    <g transform="translate(394.669688 529.308125) scale(0.08 -0.08)">
     <defs>
      <path id="DejaVuSans-Bold-34" d="M 2356 3675 
L 1038 1722 
L 2356 1722 
L 2356 3675 
z
M 2156 4666 
L 3494 4666 
L 3494 1722 
L 4159 1722 
L 4159 850 
L 3494 850 
L 3494 0 
L 2356 0 
L 2356 850 
L 288 850 
L 288 1881 
L 2156 4666 
z
" transform="scale(0.015625)"/>
     </defs>
     <use xlink:href="#DejaVuSans-Bold-34"/>
    </g>
   </g>
   <g id="text_18">
    <g id="patch_45">
     <path d="M 671.047188 532.571875 
L 676.613438 532.571875 
Q 678.213438 532.571875 678.213438 530.971875 
L 678.213438 523.229375 
Q 678.213438 521.629375 676.613438 521.629375 
L 671.047188 521.629375 
Q 669.447188 521.629375 669.447188 523.229375 
L 669.447188 530.971875 
Q 669.447188 532.571875 671.047188 532.571875 
z
" style="fill: #add8e6; opacity: 0.7; stroke: #000000; stroke-linejoin: miter"/>
    </g>
    <!-- 8 -->
    <g transform="translate(671.047188 529.308125) scale(0.08 -0.08)">
     <defs>
      <path id="DejaVuSans-Bold-38" d="M 2228 2088 
Q 1891 2088 1709 1903 
Q 1528 1719 1528 1375 
Q 1528 1031 1709 848 
Q 1891 666 2228 666 
Q 2563 666 2741 848 
Q 2919 1031 2919 1375 
Q 2919 1722 2741 1905 
Q 2563 2088 2228 2088 
z
M 1350 2484 
Q 925 2613 709 2878 
Q 494 3144 494 3541 
Q 494 4131 934 4440 
Q 1375 4750 2228 4750 
Q 3075 4750 3515 4442 
Q 3956 4134 3956 3541 
Q 3956 3144 3739 2878 
Q 3522 2613 3097 2484 
Q 3572 2353 3814 2058 
Q 4056 1763 4056 1313 
Q 4056 619 3595 264 
Q 3134 -91 2228 -91 
Q 1319 -91 855 264 
Q 391 619 391 1313 
Q 391 1763 633 2058 
Q 875 2353 1350 2484 
z
M 1631 3419 
Q 1631 3141 1786 2991 
Q 1941 2841 2228 2841 
Q 2509 2841 2662 2991 
Q 2816 3141 2816 3419 
Q 2816 3697 2662 3845 
Q 2509 3994 2228 3994 
Q 1941 3994 1786 3844 
Q 1631 3694 1631 3419 
z
" transform="scale(0.015625)"/>
     </defs>
     <use xlink:href="#DejaVuSans-Bold-38"/>
    </g>
   </g>
   <g id="text_19">
    <g id="patch_46">
     <path d="M 391.886563 394.383125 
L 403.019063 394.383125 
Q 404.619063 394.383125 404.619063 392.783125 
L 404.619063 385.040625 
Q 404.619063 383.440625 403.019063 383.440625 
L 391.886563 383.440625 
Q 390.286563 383.440625 390.286563 385.040625 
L 390.286563 392.783125 
Q 390.286563 394.383125 391.886563 394.383125 
z
" style="fill: #90ee90; opacity: 0.7; stroke: #000000; stroke-linejoin: miter"/>
    </g>
    <!-- 12 -->
    <g transform="translate(391.886563 391.119375) scale(0.08 -0.08)">
     <defs>
      <path id="DejaVuSans-Bold-31" d="M 750 831 
L 1813 831 
L 1813 3847 
L 722 3622 
L 722 4441 
L 1806 4666 
L 2950 4666 
L 2950 831 
L 4013 831 
L 4013 0 
L 750 0 
L 750 831 
z
" transform="scale(0.015625)"/>
      <path id="DejaVuSans-Bold-32" d="M 1844 884 
L 3897 884 
L 3897 0 
L 506 0 
L 506 884 
L 2209 2388 
Q 2438 2594 2547 2791 
Q 2656 2988 2656 3200 
Q 2656 3528 2436 3728 
Q 2216 3928 1850 3928 
Q 1569 3928 1234 3808 
Q 900 3688 519 3450 
L 519 4475 
Q 925 4609 1322 4679 
Q 1719 4750 2100 4750 
Q 2938 4750 3402 4381 
Q 3866 4013 3866 3353 
Q 3866 2972 3669 2642 
Q 3472 2313 2841 1759 
L 1844 884 
z
" transform="scale(0.015625)"/>
     </defs>
     <use xlink:href="#DejaVuSans-Bold-31"/>
     <use xlink:href="#DejaVuSans-Bold-32" transform="translate(69.580078 0)"/>
    </g>
   </g>
   <g id="text_20">
    <g id="patch_47">
     <path d="M 668.264063 394.383125 
L 679.396563 394.383125 
Q 680.996563 394.383125 680.996563 392.783125 
L 680.996563 385.040625 
Q 680.996563 383.440625 679.396563 383.440625 
L 668.264063 383.440625 
Q 666.664063 383.440625 666.664063 385.040625 
L 666.664063 392.783125 
Q 666.664063 394.383125 668.264063 394.383125 
z
" style="fill: #add8e6; opacity: 0.7; stroke: #000000; stroke-linejoin: miter"/>
    </g>
    <!-- 16 -->
    <g transform="translate(668.264063 391.119375) scale(0.08 -0.08)">
     <defs>
      <path id="DejaVuSans-Bold-36" d="M 2316 2303 
Q 2000 2303 1842 2098 
Q 1684 1894 1684 1484 
Q 1684 1075 1842 870 
Q 2000 666 2316 666 
Q 2634 666 2792 870 
Q 2950 1075 2950 1484 
Q 2950 1894 2792 2098 
Q 2634 2303 2316 2303 
z
M 3803 4544 
L 3803 3681 
Q 3506 3822 3243 3889 
Q 2981 3956 2731 3956 
Q 2194 3956 1894 3657 
Q 1594 3359 1544 2772 
Q 1750 2925 1990 3001 
Q 2231 3078 2516 3078 
Q 3231 3078 3670 2659 
Q 4109 2241 4109 1563 
Q 4109 813 3618 361 
Q 3128 -91 2303 -91 
Q 1394 -91 895 523 
Q 397 1138 397 2266 
Q 397 3422 980 4083 
Q 1563 4744 2578 4744 
Q 2900 4744 3203 4694 
Q 3506 4644 3803 4544 
z
" transform="scale(0.015625)"/>
     </defs>
     <use xlink:href="#DejaVuSans-Bold-31"/>
     <use xlink:href="#DejaVuSans-Bold-36" transform="translate(69.580078 0)"/>
    </g>
   </g>
   <g id="text_21">
    <g id="patch_48">
     <path d="M 128.7744 79.950337 
L 233.446275 79.950337 
Q 236.446275 79.950337 236.446275 76.950337 
L 236.446275 56.0744 
Q 236.446275 53.0744 233.446275 53.0744 
L 128.7744 53.0744 
Q 125.7744 53.0744 125.7744 56.0744 
L 125.7744 76.950337 
Q 125.7744 79.950337 128.7744 79.950337 
z
" style="fill: #ffffff; opacity: 0.8; stroke: #000000; stroke-linejoin: miter"/>
    </g>
    <!-- Success Rate: 17.0% -->
    <g transform="translate(128.7744 63.672838) scale(0.1 -0.1)">
     <defs>
      <path id="DejaVuSans-53" d="M 3425 4513 
L 3425 3897 
Q 3066 4069 2747 4153 
Q 2428 4238 2131 4238 
Q 1616 4238 1336 4038 
Q 1056 3838 1056 3469 
Q 1056 3159 1242 3001 
Q 1428 2844 1947 2747 
L 2328 2669 
Q 3034 2534 3370 2195 
Q 3706 1856 3706 1288 
Q 3706 609 3251 259 
Q 2797 -91 1919 -91 
Q 1588 -91 1214 -16 
Q 841 59 441 206 
L 441 856 
Q 825 641 1194 531 
Q 1563 422 1919 422 
Q 2459 422 2753 634 
Q 3047 847 3047 1241 
Q 3047 1584 2836 1778 
Q 2625 1972 2144 2069 
L 1759 2144 
Q 1053 2284 737 2584 
Q 422 2884 422 3419 
Q 422 4038 858 4394 
Q 1294 4750 2059 4750 
Q 2388 4750 2728 4690 
Q 3069 4631 3425 4513 
z
" transform="scale(0.015625)"/>
      <path id="DejaVuSans-75" d="M 544 1381 
L 544 3500 
L 1119 3500 
L 1119 1403 
Q 1119 906 1312 657 
Q 1506 409 1894 409 
Q 2359 409 2629 706 
Q 2900 1003 2900 1516 
L 2900 3500 
L 3475 3500 
L 3475 0 
L 2900 0 
L 2900 538 
Q 2691 219 2414 64 
Q 2138 -91 1772 -91 
Q 1169 -91 856 284 
Q 544 659 544 1381 
z
M 1991 3584 
L 1991 3584 
z
" transform="scale(0.015625)"/>
      <path id="DejaVuSans-63" d="M 3122 3366 
L 3122 2828 
Q 2878 2963 2633 3030 
Q 2388 3097 2138 3097 
Q 1578 3097 1268 2742 
Q 959 2388 959 1747 
Q 959 1106 1268 751 
Q 1578 397 2138 397 
Q 2388 397 2633 464 
Q 2878 531 3122 666 
L 3122 134 
Q 2881 22 2623 -34 
Q 2366 -91 2075 -91 
Q 1284 -91 818 406 
Q 353 903 353 1747 
Q 353 2603 823 3093 
Q 1294 3584 2113 3584 
Q 2378 3584 2631 3529 
Q 2884 3475 3122 3366 
z
" transform="scale(0.015625)"/>
      <path id="DejaVuSans-65" d="M 3597 1894 
L 3597 1613 
L 953 1613 
Q 991 1019 1311 708 
Q 1631 397 2203 397 
Q 2534 397 2845 478 
Q 3156 559 3463 722 
L 3463 178 
Q 3153 47 2828 -22 
Q 2503 -91 2169 -91 
Q 1331 -91 842 396 
Q 353 884 353 1716 
Q 353 2575 817 3079 
Q 1281 3584 2069 3584 
Q 2775 3584 3186 3129 
Q 3597 2675 3597 1894 
z
M 3022 2063 
Q 3016 2534 2758 2815 
Q 2500 3097 2075 3097 
Q 1594 3097 1305 2825 
Q 1016 2553 972 2059 
L 3022 2063 
z
" transform="scale(0.015625)"/>
      <path id="DejaVuSans-52" d="M 2841 2188 
Q 3044 2119 3236 1894 
Q 3428 1669 3622 1275 
L 4263 0 
L 3584 0 
L 2988 1197 
Q 2756 1666 2539 1819 
Q 2322 1972 1947 1972 
L 1259 1972 
L 1259 0 
L 628 0 
L 628 4666 
L 2053 4666 
Q 2853 4666 3247 4331 
Q 3641 3997 3641 3322 
Q 3641 2881 3436 2590 
Q 3231 2300 2841 2188 
z
M 1259 4147 
L 1259 2491 
L 2053 2491 
Q 2509 2491 2742 2702 
Q 2975 2913 2975 3322 
Q 2975 3731 2742 3939 
Q 2509 4147 2053 4147 
L 1259 4147 
z
" transform="scale(0.015625)"/>
      <path id="DejaVuSans-61" d="M 2194 1759 
Q 1497 1759 1228 1600 
Q 959 1441 959 1056 
Q 959 750 1161 570 
Q 1363 391 1709 391 
Q 2188 391 2477 730 
Q 2766 1069 2766 1631 
L 2766 1759 
L 2194 1759 
z
M 3341 1997 
L 3341 0 
L 2766 0 
L 2766 531 
Q 2569 213 2275 61 
Q 1981 -91 1556 -91 
Q 1019 -91 701 211 
Q 384 513 384 1019 
Q 384 1609 779 1909 
Q 1175 2209 1959 2209 
L 2766 2209 
L 2766 2266 
Q 2766 2663 2505 2880 
Q 2244 3097 1772 3097 
Q 1472 3097 1187 3025 
Q 903 2953 641 2809 
L 641 3341 
Q 956 3463 1253 3523 
Q 1550 3584 1831 3584 
Q 2591 3584 2966 3190 
Q 3341 2797 3341 1997 
z
" transform="scale(0.015625)"/>
      <path id="DejaVuSans-3a" d="M 750 794 
L 1409 794 
L 1409 0 
L 750 0 
L 750 794 
z
M 750 3309 
L 1409 3309 
L 1409 2516 
L 750 2516 
L 750 3309 
z
" transform="scale(0.015625)"/>
      <path id="DejaVuSans-37" d="M 525 4666 
L 3525 4666 
L 3525 4397 
L 1831 0 
L 1172 0 
L 2766 4134 
L 525 4134 
L 525 4666 
z
" transform="scale(0.015625)"/>
      <path id="DejaVuSans-2e" d="M 684 794 
L 1344 794 
L 1344 0 
L 684 0 
L 684 794 
z
" transform="scale(0.015625)"/>
      <path id="DejaVuSans-25" d="M 4653 2053 
Q 4381 2053 4226 1822 
Q 4072 1591 4072 1178 
Q 4072 772 4226 539 
Q 4381 306 4653 306 
Q 4919 306 5073 539 
Q 5228 772 5228 1178 
Q 5228 1588 5073 1820 
Q 4919 2053 4653 2053 
z
M 4653 2450 
Q 5147 2450 5437 2106 
Q 5728 1763 5728 1178 
Q 5728 594 5436 251 
Q 5144 -91 4653 -91 
Q 4153 -91 3862 251 
Q 3572 594 3572 1178 
Q 3572 1766 3864 2108 
Q 4156 2450 4653 2450 
z
M 1428 4353 
Q 1159 4353 1004 4120 
Q 850 3888 850 3481 
Q 850 3069 1003 2837 
Q 1156 2606 1428 2606 
Q 1700 2606 1854 2837 
Q 2009 3069 2009 3481 
Q 2009 3884 1853 4118 
Q 1697 4353 1428 4353 
z
M 4250 4750 
L 4750 4750 
L 1831 -91 
L 1331 -91 
L 4250 4750 
z
M 1428 4750 
Q 1922 4750 2215 4408 
Q 2509 4066 2509 3481 
Q 2509 2891 2217 2550 
Q 1925 2209 1428 2209 
Q 931 2209 642 2551 
Q 353 2894 353 3481 
Q 353 4063 643 4406 
Q 934 4750 1428 4750 
z
" transform="scale(0.015625)"/>
     </defs>
     <use xlink:href="#DejaVuSans-53"/>
     <use xlink:href="#DejaVuSans-75" transform="translate(63.476562 0)"/>
     <use xlink:href="#DejaVuSans-63" transform="translate(126.855469 0)"/>
     <use xlink:href="#DejaVuSans-63" transform="translate(181.835938 0)"/>
     <use xlink:href="#DejaVuSans-65" transform="translate(236.816406 0)"/>
     <use xlink:href="#DejaVuSans-73" transform="translate(298.339844 0)"/>
     <use xlink:href="#DejaVuSans-73" transform="translate(350.439453 0)"/>
     <use xlink:href="#DejaVuSans-20" transform="translate(402.539062 0)"/>
     <use xlink:href="#DejaVuSans-52" transform="translate(434.326172 0)"/>
     <use xlink:href="#DejaVuSans-61" transform="translate(501.558594 0)"/>
     <use xlink:href="#DejaVuSans-74" transform="translate(562.837891 0)"/>
     <use xlink:href="#DejaVuSans-65" transform="translate(602.046875 0)"/>
     <use xlink:href="#DejaVuSans-3a" transform="translate(663.570312 0)"/>
     <use xlink:href="#DejaVuSans-20" transform="translate(697.261719 0)"/>
     <use xlink:href="#DejaVuSans-31" transform="translate(729.048828 0)"/>
     <use xlink:href="#DejaVuSans-37" transform="translate(792.671875 0)"/>
     <use xlink:href="#DejaVuSans-2e" transform="translate(856.294922 0)"/>
     <use xlink:href="#DejaVuSans-30" transform="translate(888.082031 0)"/>
     <use xlink:href="#DejaVuSans-25" transform="translate(951.705078 0)"/>
    </g>
    <!-- Total Trials: 100 -->
    <g transform="translate(128.7744 74.87065) scale(0.1 -0.1)">
     <defs>
      <path id="DejaVuSans-54" d="M -19 4666 
L 3928 4666 
L 3928 4134 
L 2272 4134 
L 2272 0 
L 1638 0 
L 1638 4134 
L -19 4134 
L -19 4666 
z
" transform="scale(0.015625)"/>
      <path id="DejaVuSans-6c" d="M 603 4863 
L 1178 4863 
L 1178 0 
L 603 0 
L 603 4863 
z
" transform="scale(0.015625)"/>
      <path id="DejaVuSans-72" d="M 2631 2963 
Q 2534 3019 2420 3045 
Q 2306 3072 2169 3072 
Q 1681 3072 1420 2755 
Q 1159 2438 1159 1844 
L 1159 0 
L 581 0 
L 581 3500 
L 1159 3500 
L 1159 2956 
Q 1341 3275 1631 3429 
Q 1922 3584 2338 3584 
Q 2397 3584 2469 3576 
Q 2541 3569 2628 3553 
L 2631 2963 
z
" transform="scale(0.015625)"/>
     </defs>
     <use xlink:href="#DejaVuSans-54"/>
     <use xlink:href="#DejaVuSans-6f" transform="translate(44.083984 0)"/>
     <use xlink:href="#DejaVuSans-74" transform="translate(105.265625 0)"/>
     <use xlink:href="#DejaVuSans-61" transform="translate(144.474609 0)"/>
     <use xlink:href="#DejaVuSans-6c" transform="translate(205.753906 0)"/>
     <use xlink:href="#DejaVuSans-20" transform="translate(233.537109 0)"/>
     <use xlink:href="#DejaVuSans-54" transform="translate(265.324219 0)"/>
     <use xlink:href="#DejaVuSans-72" transform="translate(311.658203 0)"/>
     <use xlink:href="#DejaVuSans-69" transform="translate(352.771484 0)"/>
     <use xlink:href="#DejaVuSans-61" transform="translate(380.554688 0)"/>
     <use xlink:href="#DejaVuSans-6c" transform="translate(441.833984 0)"/>
     <use xlink:href="#DejaVuSans-73" transform="translate(469.617188 0)"/>
     <use xlink:href="#DejaVuSans-3a" transform="translate(521.716797 0)"/>
     <use xlink:href="#DejaVuSans-20" transform="translate(555.408203 0)"/>
     <use xlink:href="#DejaVuSans-31" transform="translate(587.195312 0)"/>
     <use xlink:href="#DejaVuSans-30" transform="translate(650.818359 0)"/>
     <use xlink:href="#DejaVuSans-30" transform="translate(714.441406 0)"/>
    </g>
   </g>
   <g id="text_22">
    <!-- MBD Planner Performance Heat Map -->
    <g transform="translate(287.807656 21.763062) scale(0.14 -0.14)">
     <defs>
      <path id="DejaVuSans-Bold-4d" d="M 588 4666 
L 2119 4666 
L 3181 2169 
L 4250 4666 
L 5778 4666 
L 5778 0 
L 4641 0 
L 4641 3413 
L 3566 897 
L 2803 897 
L 1728 3413 
L 1728 0 
L 588 0 
L 588 4666 
z
" transform="scale(0.015625)"/>
      <path id="DejaVuSans-Bold-42" d="M 2456 2859 
Q 2741 2859 2887 2984 
Q 3034 3109 3034 3353 
Q 3034 3594 2887 3720 
Q 2741 3847 2456 3847 
L 1791 3847 
L 1791 2859 
L 2456 2859 
z
M 2497 819 
Q 2859 819 3042 972 
Q 3225 1125 3225 1434 
Q 3225 1738 3044 1889 
Q 2863 2041 2497 2041 
L 1791 2041 
L 1791 819 
L 2497 819 
z
M 3616 2497 
Q 4003 2384 4215 2081 
Q 4428 1778 4428 1338 
Q 4428 663 3972 331 
Q 3516 0 2584 0 
L 588 0 
L 588 4666 
L 2394 4666 
Q 3366 4666 3802 4372 
Q 4238 4078 4238 3431 
Q 4238 3091 4078 2852 
Q 3919 2613 3616 2497 
z
" transform="scale(0.015625)"/>
      <path id="DejaVuSans-Bold-44" d="M 1791 3756 
L 1791 909 
L 2222 909 
Q 2959 909 3348 1275 
Q 3738 1641 3738 2338 
Q 3738 3031 3350 3393 
Q 2963 3756 2222 3756 
L 1791 3756 
z
M 588 4666 
L 1856 4666 
Q 2919 4666 3439 4514 
Q 3959 4363 4331 4000 
Q 4659 3684 4818 3271 
Q 4978 2859 4978 2338 
Q 4978 1809 4818 1395 
Q 4659 981 4331 666 
Q 3956 303 3431 151 
Q 2906 0 1856 0 
L 588 0 
L 588 4666 
z
" transform="scale(0.015625)"/>
      <path id="DejaVuSans-Bold-20" transform="scale(0.015625)"/>
      <path id="DejaVuSans-Bold-50" d="M 588 4666 
L 2584 4666 
Q 3475 4666 3951 4270 
Q 4428 3875 4428 3144 
Q 4428 2409 3951 2014 
Q 3475 1619 2584 1619 
L 1791 1619 
L 1791 0 
L 588 0 
L 588 4666 
z
M 1791 3794 
L 1791 2491 
L 2456 2491 
Q 2806 2491 2997 2661 
Q 3188 2831 3188 3144 
Q 3188 3456 2997 3625 
Q 2806 3794 2456 3794 
L 1791 3794 
z
" transform="scale(0.015625)"/>
      <path id="DejaVuSans-Bold-6c" d="M 538 4863 
L 1656 4863 
L 1656 0 
L 538 0 
L 538 4863 
z
" transform="scale(0.015625)"/>
      <path id="DejaVuSans-Bold-61" d="M 2106 1575 
Q 1756 1575 1579 1456 
Q 1403 1338 1403 1106 
Q 1403 894 1545 773 
Q 1688 653 1941 653 
Q 2256 653 2472 879 
Q 2688 1106 2688 1447 
L 2688 1575 
L 2106 1575 
z
M 3816 1997 
L 3816 0 
L 2688 0 
L 2688 519 
Q 2463 200 2181 54 
Q 1900 -91 1497 -91 
Q 953 -91 614 226 
Q 275 544 275 1050 
Q 275 1666 698 1953 
Q 1122 2241 2028 2241 
L 2688 2241 
L 2688 2328 
Q 2688 2594 2478 2717 
Q 2269 2841 1825 2841 
Q 1466 2841 1156 2769 
Q 847 2697 581 2553 
L 581 3406 
Q 941 3494 1303 3539 
Q 1666 3584 2028 3584 
Q 2975 3584 3395 3211 
Q 3816 2838 3816 1997 
z
" transform="scale(0.015625)"/>
      <path id="DejaVuSans-Bold-6e" d="M 4056 2131 
L 4056 0 
L 2931 0 
L 2931 347 
L 2931 1631 
Q 2931 2084 2911 2256 
Q 2891 2428 2841 2509 
Q 2775 2619 2662 2680 
Q 2550 2741 2406 2741 
Q 2056 2741 1856 2470 
Q 1656 2200 1656 1722 
L 1656 0 
L 538 0 
L 538 3500 
L 1656 3500 
L 1656 2988 
Q 1909 3294 2193 3439 
Q 2478 3584 2822 3584 
Q 3428 3584 3742 3212 
Q 4056 2841 4056 2131 
z
" transform="scale(0.015625)"/>
      <path id="DejaVuSans-Bold-65" d="M 4031 1759 
L 4031 1441 
L 1416 1441 
Q 1456 1047 1700 850 
Q 1944 653 2381 653 
Q 2734 653 3104 758 
Q 3475 863 3866 1075 
L 3866 213 
Q 3469 63 3072 -14 
Q 2675 -91 2278 -91 
Q 1328 -91 801 392 
Q 275 875 275 1747 
Q 275 2603 792 3093 
Q 1309 3584 2216 3584 
Q 3041 3584 3536 3087 
Q 4031 2591 4031 1759 
z
M 2881 2131 
Q 2881 2450 2695 2645 
Q 2509 2841 2209 2841 
Q 1884 2841 1681 2658 
Q 1478 2475 1428 2131 
L 2881 2131 
z
" transform="scale(0.015625)"/>
      <path id="DejaVuSans-Bold-72" d="M 3138 2547 
Q 2991 2616 2845 2648 
Q 2700 2681 2553 2681 
Q 2122 2681 1889 2404 
Q 1656 2128 1656 1613 
L 1656 0 
L 538 0 
L 538 3500 
L 1656 3500 
L 1656 2925 
Q 1872 3269 2151 3426 
Q 2431 3584 2822 3584 
Q 2878 3584 2943 3579 
Q 3009 3575 3134 3559 
L 3138 2547 
z
" transform="scale(0.015625)"/>
      <path id="DejaVuSans-Bold-66" d="M 2841 4863 
L 2841 4128 
L 2222 4128 
Q 1984 4128 1890 4042 
Q 1797 3956 1797 3744 
L 1797 3500 
L 2753 3500 
L 2753 2700 
L 1797 2700 
L 1797 0 
L 678 0 
L 678 2700 
L 122 2700 
L 122 3500 
L 678 3500 
L 678 3744 
Q 678 4316 997 4589 
Q 1316 4863 1984 4863 
L 2841 4863 
z
" transform="scale(0.015625)"/>
      <path id="DejaVuSans-Bold-6f" d="M 2203 2784 
Q 1831 2784 1636 2517 
Q 1441 2250 1441 1747 
Q 1441 1244 1636 976 
Q 1831 709 2203 709 
Q 2569 709 2762 976 
Q 2956 1244 2956 1747 
Q 2956 2250 2762 2517 
Q 2569 2784 2203 2784 
z
M 2203 3584 
Q 3106 3584 3614 3096 
Q 4122 2609 4122 1747 
Q 4122 884 3614 396 
Q 3106 -91 2203 -91 
Q 1297 -91 786 396 
Q 275 884 275 1747 
Q 275 2609 786 3096 
Q 1297 3584 2203 3584 
z
" transform="scale(0.015625)"/>
      <path id="DejaVuSans-Bold-6d" d="M 3781 2919 
Q 3994 3244 4286 3414 
Q 4578 3584 4928 3584 
Q 5531 3584 5847 3212 
Q 6163 2841 6163 2131 
L 6163 0 
L 5038 0 
L 5038 1825 
Q 5041 1866 5042 1909 
Q 5044 1953 5044 2034 
Q 5044 2406 4934 2573 
Q 4825 2741 4581 2741 
Q 4263 2741 4089 2478 
Q 3916 2216 3909 1719 
L 3909 0 
L 2784 0 
L 2784 1825 
Q 2784 2406 2684 2573 
Q 2584 2741 2328 2741 
Q 2006 2741 1831 2477 
Q 1656 2213 1656 1722 
L 1656 0 
L 531 0 
L 531 3500 
L 1656 3500 
L 1656 2988 
Q 1863 3284 2130 3434 
Q 2397 3584 2719 3584 
Q 3081 3584 3359 3409 
Q 3638 3234 3781 2919 
z
" transform="scale(0.015625)"/>
      <path id="DejaVuSans-Bold-63" d="M 3366 3391 
L 3366 2478 
Q 3138 2634 2908 2709 
Q 2678 2784 2431 2784 
Q 1963 2784 1702 2511 
Q 1441 2238 1441 1747 
Q 1441 1256 1702 982 
Q 1963 709 2431 709 
Q 2694 709 2930 787 
Q 3166 866 3366 1019 
L 3366 103 
Q 3103 6 2833 -42 
Q 2563 -91 2291 -91 
Q 1344 -91 809 395 
Q 275 881 275 1747 
Q 275 2613 809 3098 
Q 1344 3584 2291 3584 
Q 2566 3584 2833 3536 
Q 3100 3488 3366 3391 
z
" transform="scale(0.015625)"/>
      <path id="DejaVuSans-Bold-48" d="M 588 4666 
L 1791 4666 
L 1791 2888 
L 3566 2888 
L 3566 4666 
L 4769 4666 
L 4769 0 
L 3566 0 
L 3566 1978 
L 1791 1978 
L 1791 0 
L 588 0 
L 588 4666 
z
" transform="scale(0.015625)"/>
      <path id="DejaVuSans-Bold-74" d="M 1759 4494 
L 1759 3500 
L 2913 3500 
L 2913 2700 
L 1759 2700 
L 1759 1216 
Q 1759 972 1856 886 
Q 1953 800 2241 800 
L 2816 800 
L 2816 0 
L 1856 0 
Q 1194 0 917 276 
Q 641 553 641 1216 
L 641 2700 
L 84 2700 
L 84 3500 
L 641 3500 
L 641 4494 
L 1759 4494 
z
" transform="scale(0.015625)"/>
      <path id="DejaVuSans-Bold-70" d="M 1656 506 
L 1656 -1331 
L 538 -1331 
L 538 3500 
L 1656 3500 
L 1656 2988 
Q 1888 3294 2169 3439 
Q 2450 3584 2816 3584 
Q 3463 3584 3878 3070 
Q 4294 2556 4294 1747 
Q 4294 938 3878 423 
Q 3463 -91 2816 -91 
Q 2450 -91 2169 54 
Q 1888 200 1656 506 
z
M 2400 2772 
Q 2041 2772 1848 2508 
Q 1656 2244 1656 1747 
Q 1656 1250 1848 986 
Q 2041 722 2400 722 
Q 2759 722 2948 984 
Q 3138 1247 3138 1747 
Q 3138 2247 2948 2509 
Q 2759 2772 2400 2772 
z
" transform="scale(0.015625)"/>
     </defs>
     <use xlink:href="#DejaVuSans-Bold-4d"/>
     <use xlink:href="#DejaVuSans-Bold-42" transform="translate(99.511719 0)"/>
     <use xlink:href="#DejaVuSans-Bold-44" transform="translate(175.732422 0)"/>
     <use xlink:href="#DejaVuSans-Bold-20" transform="translate(258.740234 0)"/>
     <use xlink:href="#DejaVuSans-Bold-50" transform="translate(293.554688 0)"/>
     <use xlink:href="#DejaVuSans-Bold-6c" transform="translate(366.845703 0)"/>
     <use xlink:href="#DejaVuSans-Bold-61" transform="translate(401.123047 0)"/>
     <use xlink:href="#DejaVuSans-Bold-6e" transform="translate(468.603516 0)"/>
     <use xlink:href="#DejaVuSans-Bold-6e" transform="translate(539.794922 0)"/>
     <use xlink:href="#DejaVuSans-Bold-65" transform="translate(610.986328 0)"/>
     <use xlink:href="#DejaVuSans-Bold-72" transform="translate(678.808594 0)"/>
     <use xlink:href="#DejaVuSans-Bold-20" transform="translate(728.125 0)"/>
     <use xlink:href="#DejaVuSans-Bold-50" transform="translate(762.939453 0)"/>
     <use xlink:href="#DejaVuSans-Bold-65" transform="translate(836.230469 0)"/>
     <use xlink:href="#DejaVuSans-Bold-72" transform="translate(904.052734 0)"/>
     <use xlink:href="#DejaVuSans-Bold-66" transform="translate(953.369141 0)"/>
     <use xlink:href="#DejaVuSans-Bold-6f" transform="translate(996.875 0)"/>
     <use xlink:href="#DejaVuSans-Bold-72" transform="translate(1065.576172 0)"/>
     <use xlink:href="#DejaVuSans-Bold-6d" transform="translate(1114.892578 0)"/>
     <use xlink:href="#DejaVuSans-Bold-61" transform="translate(1219.091797 0)"/>
     <use xlink:href="#DejaVuSans-Bold-6e" transform="translate(1286.572266 0)"/>
     <use xlink:href="#DejaVuSans-Bold-63" transform="translate(1357.763672 0)"/>
     <use xlink:href="#DejaVuSans-Bold-65" transform="translate(1417.041016 0)"/>
     <use xlink:href="#DejaVuSans-Bold-20" transform="translate(1484.863281 0)"/>
     <use xlink:href="#DejaVuSans-Bold-48" transform="translate(1519.677734 0)"/>
     <use xlink:href="#DejaVuSans-Bold-65" transform="translate(1603.369141 0)"/>
     <use xlink:href="#DejaVuSans-Bold-61" transform="translate(1671.191406 0)"/>
     <use xlink:href="#DejaVuSans-Bold-74" transform="translate(1738.671875 0)"/>
     <use xlink:href="#DejaVuSans-Bold-20" transform="translate(1786.474609 0)"/>
     <use xlink:href="#DejaVuSans-Bold-4d" transform="translate(1821.289062 0)"/>
     <use xlink:href="#DejaVuSans-Bold-61" transform="translate(1920.800781 0)"/>
     <use xlink:href="#DejaVuSans-Bold-70" transform="translate(1988.28125 0)"/>
    </g>
    <!-- Initial Positions vs Success/Failure -->
    <g transform="translate(295.856563 37.44) scale(0.14 -0.14)">
     <defs>
      <path id="DejaVuSans-Bold-49" d="M 588 4666 
L 1791 4666 
L 1791 0 
L 588 0 
L 588 4666 
z
" transform="scale(0.015625)"/>
      <path id="DejaVuSans-Bold-69" d="M 538 3500 
L 1656 3500 
L 1656 0 
L 538 0 
L 538 3500 
z
M 538 4863 
L 1656 4863 
L 1656 3950 
L 538 3950 
L 538 4863 
z
" transform="scale(0.015625)"/>
      <path id="DejaVuSans-Bold-73" d="M 3272 3391 
L 3272 2541 
Q 2913 2691 2578 2766 
Q 2244 2841 1947 2841 
Q 1628 2841 1473 2761 
Q 1319 2681 1319 2516 
Q 1319 2381 1436 2309 
Q 1553 2238 1856 2203 
L 2053 2175 
Q 2913 2066 3209 1816 
Q 3506 1566 3506 1031 
Q 3506 472 3093 190 
Q 2681 -91 1863 -91 
Q 1516 -91 1145 -36 
Q 775 19 384 128 
L 384 978 
Q 719 816 1070 734 
Q 1422 653 1784 653 
Q 2113 653 2278 743 
Q 2444 834 2444 1013 
Q 2444 1163 2330 1236 
Q 2216 1309 1875 1350 
L 1678 1375 
Q 931 1469 631 1722 
Q 331 1975 331 2491 
Q 331 3047 712 3315 
Q 1094 3584 1881 3584 
Q 2191 3584 2531 3537 
Q 2872 3491 3272 3391 
z
" transform="scale(0.015625)"/>
      <path id="DejaVuSans-Bold-76" d="M 97 3500 
L 1216 3500 
L 2088 1081 
L 2956 3500 
L 4078 3500 
L 2700 0 
L 1472 0 
L 97 3500 
z
" transform="scale(0.015625)"/>
      <path id="DejaVuSans-Bold-53" d="M 3834 4519 
L 3834 3531 
Q 3450 3703 3084 3790 
Q 2719 3878 2394 3878 
Q 1963 3878 1756 3759 
Q 1550 3641 1550 3391 
Q 1550 3203 1689 3098 
Q 1828 2994 2194 2919 
L 2706 2816 
Q 3484 2659 3812 2340 
Q 4141 2022 4141 1434 
Q 4141 663 3683 286 
Q 3225 -91 2284 -91 
Q 1841 -91 1394 -6 
Q 947 78 500 244 
L 500 1259 
Q 947 1022 1364 901 
Q 1781 781 2169 781 
Q 2563 781 2772 912 
Q 2981 1044 2981 1288 
Q 2981 1506 2839 1625 
Q 2697 1744 2272 1838 
L 1806 1941 
Q 1106 2091 782 2419 
Q 459 2747 459 3303 
Q 459 4000 909 4375 
Q 1359 4750 2203 4750 
Q 2588 4750 2994 4692 
Q 3400 4634 3834 4519 
z
" transform="scale(0.015625)"/>
      <path id="DejaVuSans-Bold-75" d="M 500 1363 
L 500 3500 
L 1625 3500 
L 1625 3150 
Q 1625 2866 1622 2436 
Q 1619 2006 1619 1863 
Q 1619 1441 1641 1255 
Q 1663 1069 1716 984 
Q 1784 875 1895 815 
Q 2006 756 2150 756 
Q 2500 756 2700 1025 
Q 2900 1294 2900 1772 
L 2900 3500 
L 4019 3500 
L 4019 0 
L 2900 0 
L 2900 506 
Q 2647 200 2364 54 
Q 2081 -91 1741 -91 
Q 1134 -91 817 281 
Q 500 653 500 1363 
z
" transform="scale(0.015625)"/>
      <path id="DejaVuSans-Bold-2f" d="M 1644 4666 
L 2338 4666 
L 691 -594 
L 0 -594 
L 1644 4666 
z
" transform="scale(0.015625)"/>
      <path id="DejaVuSans-Bold-46" d="M 588 4666 
L 3834 4666 
L 3834 3756 
L 1791 3756 
L 1791 2888 
L 3713 2888 
L 3713 1978 
L 1791 1978 
L 1791 0 
L 588 0 
L 588 4666 
z
" transform="scale(0.015625)"/>
     </defs>
     <use xlink:href="#DejaVuSans-Bold-49"/>
     <use xlink:href="#DejaVuSans-Bold-6e" transform="translate(37.207031 0)"/>
     <use xlink:href="#DejaVuSans-Bold-69" transform="translate(108.398438 0)"/>
     <use xlink:href="#DejaVuSans-Bold-74" transform="translate(142.675781 0)"/>
     <use xlink:href="#DejaVuSans-Bold-69" transform="translate(190.478516 0)"/>
     <use xlink:href="#DejaVuSans-Bold-61" transform="translate(224.755859 0)"/>
     <use xlink:href="#DejaVuSans-Bold-6c" transform="translate(292.236328 0)"/>
     <use xlink:href="#DejaVuSans-Bold-20" transform="translate(326.513672 0)"/>
     <use xlink:href="#DejaVuSans-Bold-50" transform="translate(361.328125 0)"/>
     <use xlink:href="#DejaVuSans-Bold-6f" transform="translate(434.619141 0)"/>
     <use xlink:href="#DejaVuSans-Bold-73" transform="translate(503.320312 0)"/>
     <use xlink:href="#DejaVuSans-Bold-69" transform="translate(562.841797 0)"/>
     <use xlink:href="#DejaVuSans-Bold-74" transform="translate(597.119141 0)"/>
     <use xlink:href="#DejaVuSans-Bold-69" transform="translate(644.921875 0)"/>
     <use xlink:href="#DejaVuSans-Bold-6f" transform="translate(679.199219 0)"/>
     <use xlink:href="#DejaVuSans-Bold-6e" transform="translate(747.900391 0)"/>
     <use xlink:href="#DejaVuSans-Bold-73" transform="translate(819.091797 0)"/>
     <use xlink:href="#DejaVuSans-Bold-20" transform="translate(878.613281 0)"/>
     <use xlink:href="#DejaVuSans-Bold-76" transform="translate(913.427734 0)"/>
     <use xlink:href="#DejaVuSans-Bold-73" transform="translate(978.613281 0)"/>
     <use xlink:href="#DejaVuSans-Bold-20" transform="translate(1038.134766 0)"/>
     <use xlink:href="#DejaVuSans-Bold-53" transform="translate(1072.949219 0)"/>
     <use xlink:href="#DejaVuSans-Bold-75" transform="translate(1144.970703 0)"/>
     <use xlink:href="#DejaVuSans-Bold-63" transform="translate(1216.162109 0)"/>
     <use xlink:href="#DejaVuSans-Bold-63" transform="translate(1275.439453 0)"/>
     <use xlink:href="#DejaVuSans-Bold-65" transform="translate(1334.716797 0)"/>
     <use xlink:href="#DejaVuSans-Bold-73" transform="translate(1402.539062 0)"/>
     <use xlink:href="#DejaVuSans-Bold-73" transform="translate(1462.060547 0)"/>
     <use xlink:href="#DejaVuSans-Bold-2f" transform="translate(1521.582031 0)"/>
     <use xlink:href="#DejaVuSans-Bold-46" transform="translate(1558.105469 0)"/>
     <use xlink:href="#DejaVuSans-Bold-61" transform="translate(1620.541016 0)"/>
     <use xlink:href="#DejaVuSans-Bold-69" transform="translate(1688.021484 0)"/>
     <use xlink:href="#DejaVuSans-Bold-6c" transform="translate(1722.298828 0)"/>
     <use xlink:href="#DejaVuSans-Bold-75" transform="translate(1756.576172 0)"/>
     <use xlink:href="#DejaVuSans-Bold-72" transform="translate(1827.767578 0)"/>
     <use xlink:href="#DejaVuSans-Bold-65" transform="translate(1877.083984 0)"/>
    </g>
   </g>
   <g id="legend_1">
    <g id="patch_49">
     <path d="M 634.602969 84.531875 
L 740.16 84.531875 
Q 742.36 84.531875 742.36 82.331875 
L 742.36 51.14 
Q 742.36 48.94 740.16 48.94 
L 634.602969 48.94 
Q 632.402969 48.94 632.402969 51.14 
L 632.402969 82.331875 
Q 632.402969 84.531875 634.602969 84.531875 
z
" style="fill: #ffffff; opacity: 0.8; stroke: #cccccc; stroke-linejoin: miter"/>
    </g>
    <g id="PathCollection_3">
     <g>
      <use xlink:href="#mdfb8dc7449" x="647.802969" y="58.810781" style="fill: #008000; fill-opacity: 0.7; stroke: #006400; stroke-opacity: 0.7; stroke-width: 2"/>
     </g>
    </g>
    <g id="text_23">
     <!-- Success (17) -->
     <g transform="translate(667.602969 61.698281) scale(0.11 -0.11)">
      <use xlink:href="#DejaVuSans-53"/>
      <use xlink:href="#DejaVuSans-75" transform="translate(63.476562 0)"/>
      <use xlink:href="#DejaVuSans-63" transform="translate(126.855469 0)"/>
      <use xlink:href="#DejaVuSans-63" transform="translate(181.835938 0)"/>
      <use xlink:href="#DejaVuSans-65" transform="translate(236.816406 0)"/>
      <use xlink:href="#DejaVuSans-73" transform="translate(298.339844 0)"/>
      <use xlink:href="#DejaVuSans-73" transform="translate(350.439453 0)"/>
      <use xlink:href="#DejaVuSans-20" transform="translate(402.539062 0)"/>
      <use xlink:href="#DejaVuSans-28" transform="translate(434.326172 0)"/>
      <use xlink:href="#DejaVuSans-31" transform="translate(473.339844 0)"/>
      <use xlink:href="#DejaVuSans-37" transform="translate(536.962891 0)"/>
      <use xlink:href="#DejaVuSans-29" transform="translate(600.585938 0)"/>
     </g>
    </g>
    <g id="PathCollection_4">
     <g>
      <use xlink:href="#m52f7609146" x="647.802969" y="74.956719" style="fill: #ff0000; fill-opacity: 0.7; stroke: #ff0000; stroke-opacity: 0.7; stroke-width: 3"/>
     </g>
    </g>
    <g id="text_24">
     <!-- Failed (83) -->
     <g transform="translate(667.602969 77.844219) scale(0.11 -0.11)">
      <defs>
       <path id="DejaVuSans-46" d="M 628 4666 
L 3309 4666 
L 3309 4134 
L 1259 4134 
L 1259 2759 
L 3109 2759 
L 3109 2228 
L 1259 2228 
L 1259 0 
L 628 0 
L 628 4666 
z
" transform="scale(0.015625)"/>
       <path id="DejaVuSans-64" d="M 2906 2969 
L 2906 4863 
L 3481 4863 
L 3481 0 
L 2906 0 
L 2906 525 
Q 2725 213 2448 61 
Q 2172 -91 1784 -91 
Q 1150 -91 751 415 
Q 353 922 353 1747 
Q 353 2572 751 3078 
Q 1150 3584 1784 3584 
Q 2172 3584 2448 3432 
Q 2725 3281 2906 2969 
z
M 947 1747 
Q 947 1113 1208 752 
Q 1469 391 1925 391 
Q 2381 391 2643 752 
Q 2906 1113 2906 1747 
Q 2906 2381 2643 2742 
Q 2381 3103 1925 3103 
Q 1469 3103 1208 2742 
Q 947 2381 947 1747 
z
" transform="scale(0.015625)"/>
       <path id="DejaVuSans-38" d="M 2034 2216 
Q 1584 2216 1326 1975 
Q 1069 1734 1069 1313 
Q 1069 891 1326 650 
Q 1584 409 2034 409 
Q 2484 409 2743 651 
Q 3003 894 3003 1313 
Q 3003 1734 2745 1975 
Q 2488 2216 2034 2216 
z
M 1403 2484 
Q 997 2584 770 2862 
Q 544 3141 544 3541 
Q 544 4100 942 4425 
Q 1341 4750 2034 4750 
Q 2731 4750 3128 4425 
Q 3525 4100 3525 3541 
Q 3525 3141 3298 2862 
Q 3072 2584 2669 2484 
Q 3125 2378 3379 2068 
Q 3634 1759 3634 1313 
Q 3634 634 3220 271 
Q 2806 -91 2034 -91 
Q 1263 -91 848 271 
Q 434 634 434 1313 
Q 434 1759 690 2068 
Q 947 2378 1403 2484 
z
M 1172 3481 
Q 1172 3119 1398 2916 
Q 1625 2713 2034 2713 
Q 2441 2713 2670 2916 
Q 2900 3119 2900 3481 
Q 2900 3844 2670 4047 
Q 2441 4250 2034 4250 
Q 1625 4250 1398 4047 
Q 1172 3844 1172 3481 
z
" transform="scale(0.015625)"/>
       <path id="DejaVuSans-33" d="M 2597 2516 
Q 3050 2419 3304 2112 
Q 3559 1806 3559 1356 
Q 3559 666 3084 287 
Q 2609 -91 1734 -91 
Q 1441 -91 1130 -33 
Q 819 25 488 141 
L 488 750 
Q 750 597 1062 519 
Q 1375 441 1716 441 
Q 2309 441 2620 675 
Q 2931 909 2931 1356 
Q 2931 1769 2642 2001 
Q 2353 2234 1838 2234 
L 1294 2234 
L 1294 2753 
L 1863 2753 
Q 2328 2753 2575 2939 
Q 2822 3125 2822 3475 
Q 2822 3834 2567 4026 
Q 2313 4219 1838 4219 
Q 1578 4219 1281 4162 
Q 984 4106 628 3988 
L 628 4550 
Q 988 4650 1302 4700 
Q 1616 4750 1894 4750 
Q 2613 4750 3031 4423 
Q 3450 4097 3450 3541 
Q 3450 3153 3228 2886 
Q 3006 2619 2597 2516 
z
" transform="scale(0.015625)"/>
      </defs>
      <use xlink:href="#DejaVuSans-46"/>
      <use xlink:href="#DejaVuSans-61" transform="translate(48.394531 0)"/>
      <use xlink:href="#DejaVuSans-69" transform="translate(109.673828 0)"/>
      <use xlink:href="#DejaVuSans-6c" transform="translate(137.457031 0)"/>
      <use xlink:href="#DejaVuSans-65" transform="translate(165.240234 0)"/>
      <use xlink:href="#DejaVuSans-64" transform="translate(226.763672 0)"/>
      <use xlink:href="#DejaVuSans-20" transform="translate(290.240234 0)"/>
      <use xlink:href="#DejaVuSans-28" transform="translate(322.027344 0)"/>
      <use xlink:href="#DejaVuSans-38" transform="translate(361.041016 0)"/>
      <use xlink:href="#DejaVuSans-33" transform="translate(424.664062 0)"/>
      <use xlink:href="#DejaVuSans-29" transform="translate(488.287109 0)"/>
     </g>
    </g>
   </g>
  </g>
 </g>
 <defs>
  <clipPath id="p416f26b46b">
   <rect x="116.14" y="43.44" width="631.72" height="631.72"/>
  </clipPath>
 </defs>
</svg>
